<?xml version="1.0" standalone="no"?>
<!DOCTYPE svg PUBLIC "-//W3C//DTD SVG 1.1//EN" "http://www.w3.org/Graphics/SVG/1.1/DTD/svg11.dtd" >
<svg xmlns="http://www.w3.org/2000/svg">
<metadata>Generated by IcoMoon</metadata>
<defs>
<font id="one-dt-core-light" horiz-adv-x="1024">
<font-face units-per-em="1024" ascent="960" descent="-64" />
<missing-glyph horiz-adv-x="1024" />
<glyph unicode="&#x20;" horiz-adv-x="512" d="" />
<glyph unicode="&#xe900;" glyph-name="chart-line" d="M1008 128h-944v688c0 8.84-7.16 16-16 16h-32c-8.84 0-16-7.16-16-16v-720c0-17.68 14.32-32 32-32h976c8.84 0 16 7.16 16 16v32c0 8.84-7.16 16-16 16zM196.68 433.94c-6.24-6.24-6.24-16.38 0-22.62l22.62-22.62c6.24-6.24 16.38-6.24 22.62 0l145.38 144.020 169.38-169.38c12.5-12.5 32.76-12.5 45.26 0l187.060 187.060 88.080-88.080c9.9-9.9 22.060-14.32 34-14.32 24.96 0 48.92 19.4 48.92 48.68v238.94c0 17.88-14.5 32.38-32.38 32.38h-238.94c-43.28 0-64.94-52.32-34.34-82.92l89.42-89.42-164.44-164.44-169.26 169.26c-12.46 12.46-32.64 12.5-45.14 0.1l-168.24-166.64zM725.92 704h170.080v-170.080l-170.080 170.080z" />
<glyph unicode="&#xe901;" glyph-name="chart-network" horiz-adv-x="1280" d="M1027.2 554.4l-38.4 51.2-96-72 38.4-51.2 96 72zM1152 576c26.6 0 51.2 8 71.6 21.8 13.6 9.2 25.4 21 34.6 34.6 13.8 20.4 21.8 45 21.8 71.6s-8 51.2-21.8 71.6c-4.6 6.8-9.8 13.2-15.6 19s-12.2 11-19 15.6c-20.4 13.8-45 21.8-71.6 21.8s-51.2-8-71.6-21.8c-13.6-9.2-25.4-21-34.6-34.6-13.8-20.4-21.8-45-21.8-71.6 0-70.6 57.4-128 128-128zM1152 768c35.2 0 64-28.8 64-64s-28.8-64-64-64-64 28.8-64 64 28.8 64 64 64zM199.6 458.2c-20.4 13.8-45 21.8-71.6 21.8s-51.2-8-71.6-21.8c-13.6-9.2-25.4-21-34.6-34.6-13.8-20.4-21.8-45-21.8-71.6 0-70.6 57.4-128 128-128s128 57.4 128 128c0 26.6-8 51.2-21.8 71.6-9.2 13.6-21 25.4-34.6 34.6zM128 288c-35.2 0-64 28.8-64 64s28.8 64 64 64 64-28.8 64-64-28.8-64-64-64zM304 320h96v64h-96v-64zM1242.6 154.6c-5.8 5.8-12.2 11-19 15.6-20.4 13.8-45 21.8-71.6 21.8s-51.2-8-71.6-21.8c-6.6-4.4-12.6-9.4-18.2-15l-183.6 110.2c11.2 26.6 17.4 56 17.4 86.6 0 123.8-100.2 224-224 224-22.6 0-43.8-4.4-64.4-10.4l-78.6 168.2c28.6 23.4 47 58.4 47 98.2 0 26.6-8 51.2-21.8 71.6-9.2 13.6-21 25.4-34.6 34.6-20.4 13.8-45 21.8-71.6 21.8s-51.2-8-71.6-21.8c-13.6-9.2-25.4-21-34.6-34.6-13.8-20.4-21.8-45-21.8-71.6 0-70.6 57.4-128 128-128 8 0 15.8 1 23.4 2.4l78-167.2c-61-40-101.4-108.8-101.4-187.2 0-123.8 100.2-224 224-224 70 0 131.6 32.8 172.8 83l184.8-110.8c-3.4-11.6-5.4-23.6-5.4-36.2 0-70.6 57.4-128 128-128 26.6 0 51.2 8 71.6 21.8 13.6 9.2 25.4 21 34.6 34.6 13.6 20.4 21.6 45 21.6 71.6s-8 51.2-21.8 71.6c-4.6 6.8-10 13.2-15.6 19zM448 768c-35.2 0-64 28.8-64 64s28.8 64 64 64 64-28.8 64-64-28.8-64-64-64zM672 192c-88.2 0-160 71.8-160 160s71.8 160 160 160 160-71.8 160-160-71.8-160-160-160zM1152 0c-35.2 0-64 28.8-64 64s28.8 64 64 64 64-28.8 64-64-28.8-64-64-64z" />
<glyph unicode="&#xe902;" glyph-name="clinic-medical" horiz-adv-x="1152" d="M1146.96 520.16l-525.76 423.84c-12.223 9.984-28 16.034-45.19 16.034s-32.967-6.049-45.319-16.136l0.129 0.102-525.76-423.84c-3.087-2.48-5.046-6.255-5.046-10.487 0-3.242 1.15-6.216 3.064-8.536l-0.018 0.023 28.4-34.98c2.521-3.094 6.331-5.054 10.599-5.054 3.272 0 6.275 1.152 8.626 3.073l-0.024-0.019 77.34 62.38v-558.56c0-17.673 14.327-32 32-32v0h832c17.673 0 32 14.327 32 32v0 558.36l77.6-62.58c2.327-1.897 5.328-3.046 8.599-3.046 4.267 0 8.077 1.957 10.582 5.021l0.019 0.024 28.38 35c1.758 2.344 2.815 5.302 2.815 8.506 0 4.348-1.946 8.242-5.015 10.857l-0.020 0.017zM960 0h-768v578.16l375.42 302.8c2.268 1.868 5.202 3 8.4 3s6.132-1.132 8.423-3.018l-0.023 0.018 375.78-302.96zM512 528v-112h-112c-8.837 0-16-7.163-16-16v0-96c0-8.837 7.163-16 16-16v0h112v-112c0-8.837 7.163-16 16-16v0h96c8.837 0 16 7.163 16 16v0 112h112c8.837 0 16 7.163 16 16v0 96c0 8.837-7.163 16-16 16v0h-112v112c0 8.837-7.163 16-16 16v0h-96c-8.837 0-16-7.163-16-16v0z" />
<glyph unicode="&#xe903;" glyph-name="clipboard-prescription" horiz-adv-x="768" d="M672 832h-177.2c0.8 5.2 1.2 10.6 1.2 16 0 61.8-50.2 112-112 112s-112-50.2-112-112c0-5.4 0.4-10.8 1.2-16h-177.2c-53 0-96-43-96-96v-704c0-53 43-96 96-96h576c53 0 96 43 96 96v704c0 53-43 96-96 96zM384 896c26.6 0 48-21.4 48-48 0-26.4-21.4-48-48-48s-48 21.6-48 48c0 26.6 21.4 48 48 48zM704 32c0-17.6-14.4-32-32-32h-576c-17.6 0-32 14.4-32 32v704c0 17.6 14.4 32 32 32h96v-40c0-13.2 10.8-24 24-24h336c13.2 0 24 10.8 24 24v40h96c17.6 0 32-14.4 32-32zM571.4 356.6l-22.6 22.6c-6.2 6.2-16.4 6.2-22.6 0l-78-78-62.8 62.8c37 18.2 62.6 56 62.6 100 0 61.8-50.2 112-112 112h-128c-8.8 0-16-7.2-16-16v-288c0-8.8 7.2-16 16-16h32c8.8 0 16 7.2 16 16v80h50.8l96-96-78-78c-6.2-6.2-6.2-16.4 0-22.6l22.6-22.6c6.2-6.2 16.4-6.2 22.6 0l78 78 78-78c6.2-6.2 16.4-6.2 22.6 0l22.6 22.6c6.2 6.2 6.2 16.4 0 22.6l-78 78 78 78c6.4 6.4 6.4 16.4 0.2 22.6zM336 416h-80v96h80c26.4 0 48-21.6 48-48s-21.6-48-48-48z" />
<glyph unicode="&#xe904;" glyph-name="cog" d="M965.392 361.448l-65.22 37.654c1.958 14.684 3.075 31.661 3.075 48.899s-1.117 34.215-3.284 50.863l0.209-1.964 65.22 37.654c19.152 11.056 28.39 33.804 22.092 55.002-22.428 75.498-62.35 143.456-115.070 199.19-15.268 16.14-39.634 19.672-58.874 8.564l-65.124-37.596c-24.475 18.797-52.351 35.208-82.151 47.995l-2.527 0.965v75.228c0 22.26-15.304 41.608-36.968 46.734-75.288 17.818-154.236 17.82-229.54 0-21.662-5.126-36.968-24.472-36.968-46.734v-75.228c-32.327-13.752-60.203-30.162-85.603-49.641l0.925 0.681-65.124 37.596c-19.242 11.108-43.608 7.576-58.874-8.564-52.72-55.734-92.642-123.694-115.070-199.19-6.298-21.198 2.94-43.944 22.092-55.002l65.22-37.654c-1.958-14.684-3.075-31.661-3.075-48.899s1.117-34.215 3.284-50.863l-0.209 1.964-65.22-37.654c-19.152-11.056-28.39-33.804-22.092-55.002 22.428-75.496 62.35-143.456 115.070-199.19 15.268-16.14 39.634-19.672 58.874-8.566l65.124 37.596c24.474-18.798 52.351-35.207 82.151-47.994l2.527-0.964v-75.228c0-22.26 15.304-41.608 36.968-46.734 75.29-17.818 154.236-17.82 229.54 0 21.662 5.126 36.968 24.472 36.968 46.734v75.228c32.326 13.752 60.203 30.162 85.604 49.64l-0.926-0.682 65.124-37.596c19.24-11.108 43.606-7.576 58.874 8.566 52.72 55.734 92.642 123.694 115.070 199.19 6.298 21.198-2.94 43.944-22.092 55.002zM834.434 160.526l-92.618 53.48c-53.976-46.142-73.118-57.752-142.078-82.118v-106.958c-26.375-5.694-56.676-8.955-87.738-8.955s-61.363 3.261-90.578 9.459l2.84-0.504v106.958c-67.242 23.758-86.71 34.79-142.078 82.118l-92.618-53.48c-39.42 44.18-69.378 95.978-87.858 151.916l92.658 53.48c-13.070 70.834-13.076 93.288 0 164.158l-92.658 53.48c18.48 55.938 48.44 107.738 87.858 151.938l92.618-53.52c54.754 46.868 74.126 58.13 142.078 82.138v106.956c26.376 5.703 56.675 8.97 87.738 8.97s61.363-3.267 90.575-9.475l-2.837 0.505v-106.958c67.956-24.010 87.33-35.274 142.078-82.138l92.618 53.52c39.418-44.198 69.378-95.998 87.858-151.938l-92.658-53.48c13.072-70.852 13.076-93.288 0-164.158l92.658-53.48c-18.48-55.936-48.438-107.736-87.858-151.914zM512 640c-105.87 0-192-86.13-192-192s86.13-192 192-192 192 86.13 192 192-86.13 192-192 192zM512 320c-70.58 0-128 57.42-128 128s57.42 128 128 128 128-57.42 128-128-57.42-128-128-128z" />
<glyph unicode="&#xe905;" glyph-name="database" horiz-adv-x="896" d="M448 896c212 0 384-57.5 384-128v-64c0-70.5-172-128-384-128s-384 57.5-384 128v64c0 70.5 172 128 384 128zM832 597v-85c0-70.5-172-128-384-128s-384 57.5-384 128v85c82.5-58 233.5-85 384-85s301.498 27 384 85zM832 405v-85c0-70.5-172-128-384-128s-384 57.5-384 128v85c82.5-58 233.5-85 384-85s301.498 27 384 85zM832 213v-85c0-70.5-172-128-384-128s-384 57.5-384 128v85c82.5-58 233.5-85 384-85s301.498 27 384 85zM448 960c-156.284 0-448-37.602-448-192v-640c0-154.676 292.192-192 448-192 156.284 0 448 37.602 448 192v640c0 154.676-292.192 192-448 192z" />
<glyph unicode="&#xe906;" glyph-name="expand-arrows" horiz-adv-x="896" d="M895.4 232l0.6-208c0-13.2-10.8-24-24-24l-208 0.6c-13.2 0-24 10.8-24 24v20c0 13.2 10.8 24 24 24l116-0.6 1.4 1.4-333.4 333.4-333.4-333.4 1.4-1.4 116 0.6c13.2 0 24-10.8 24-24v-20c0-13.2-10.8-24-24-24l-208-0.6c-13.2 0-24 10.8-24 24l0.6 208c0 13.2 10.8 24 24 24h20c13.2 0 24-10.8 24-24l-0.6-116 1.4-1.4 333.4 333.4-333.4 333.4-1.4-1.4 0.6-116c0-13.2-10.8-24-24-24h-20c-13.2 0-24 10.8-24 24l-0.6 208c0 13.2 10.8 24 24 24l208-0.6c13.2 0 24-10.8 24-24v-20c0-13.2-10.8-24-24-24l-116 0.6-1.4-1.4 333.4-333.4 333.4 333.4-1.4 1.4-116-0.6c-13.2 0-24 10.8-24 24v20c0 13.2 10.8 24 24 24l208 0.6c13.2 0 24-10.8 24-24l-0.6-208c0-13.2-10.8-24-24-24h-20c-13.2 0-24 10.8-24 24l0.6 116-1.4 1.4-333.4-333.4 333.4-333.4 1.4 1.4-0.6 116c0 13.2 10.8 24 24 24h20c13.2 0 24-10.8 24-24z" />
<glyph unicode="&#xe907;" glyph-name="expand-wide" d="M0 536v248c0 26.6 21.4 48 48 48h248c13.2 0 24-10.8 24-24v-16c0-13.2-10.8-24-24-24h-232v-232c0-13.2-10.8-24-24-24h-16c-13.2 0-24 10.8-24 24zM728 832h248c26.6 0 48-21.4 48-48v-248c0-13.2-10.8-24-24-24h-16c-13.2 0-24 10.8-24 24v232h-232c-13.2 0-24 10.8-24 24v16c0 13.2 10.8 24 24 24zM1024 360v-248c0-26.6-21.4-48-48-48h-248c-13.2 0-24 10.8-24 24v16c0 13.2 10.8 24 24 24h232v232c0 13.2 10.8 24 24 24h16c13.2 0 24-10.8 24-24zM296 64h-248c-26.6 0-48 21.4-48 48v248c0 13.2 10.8 24 24 24h16c13.2 0 24-10.8 24-24v-232h232c13.2 0 24-10.8 24-24v-16c0-13.2-10.8-24-24-24z" />
<glyph unicode="&#xe908;" glyph-name="clone" d="M928 960h-640c-53.020 0-96-42.98-96-96v-96h-96c-53.020 0-96-42.98-96-96v-640c0-53.020 42.98-96 96-96h640c53.020 0 96 42.98 96 96v96h96c53.020 0 96 42.98 96 96v640c0 53.020-42.98 96-96 96zM768 32c0-17.64-14.36-32-32-32h-640c-17.64 0-32 14.36-32 32v640c0 17.64 14.36 32 32 32h96v-480c0-53.020 42.98-96 96-96h480v-96zM960 224c0-17.64-14.36-32-32-32h-640c-17.64 0-32 14.36-32 32v640c0 17.64 14.36 32 32 32h640c17.64 0 32-14.36 32-32v-640z" />
<glyph unicode="&#xe909;" glyph-name="file" horiz-adv-x="768" d="M739.8 764.2l-167.8 167.8c-18 18-42.4 28.2-67.8 28.2h-408.2c-53-0.2-96-43.2-96-96.2v-832c0-53 43-96 96-96h576c53 0 96 43 96 96v664.2c0 25.4-10.2 50-28.2 68zM694.6 718.8c4.2-4.2 7-9.2 8.4-14.8h-191v191c5.6-1.4 10.6-4.2 14.8-8.4l167.8-167.8zM672 0h-576c-17.6 0-32 14.4-32 32v832c0 17.6 14.4 32 32 32h352v-208c0-26.6 21.4-48 48-48h208v-608c0-17.6-14.4-32-32-32z" />
<glyph unicode="&#xe90a;" glyph-name="copy" horiz-adv-x="896" d="M867.882 828.118l-103.764 103.764c-17.373 17.373-41.372 28.118-67.882 28.118h-344.236c-53.020 0-96-42.98-96-96v-96h-160c-53.020 0-96-42.98-96-96v-640c0-53.020 42.98-96 96-96h448c53.020 0 96 42.98 96 96v96h160c53.020 0 96 42.98 96 96v536.236c0 26.51-10.745 50.509-28.118 67.882v0zM704 895.018c5.851-1.475 10.883-4.406 14.862-8.39v0l103.764-103.766c3.983-3.98 6.915-9.011 8.343-14.642l0.047-0.22h-127.016v127.018zM576 32c0-17.644-14.356-32-32-32h-448c-17.644 0-32 14.356-32 32v640c0 17.644 14.356 32 32 32h160v-480c0-53.020 42.98-96 96-96h224v-96zM832 224c0-17.644-14.356-32-32-32h-448c-17.644 0-32 14.356-32 32v640c0 17.644 14.356 32 32 32h288v-144c0-26.4 21.6-48 48-48h144v-480z" />
<glyph unicode="&#xe90b;" glyph-name="file-alt" horiz-adv-x="768" d="M739.8 764.2l-167.8 167.8c-18 18-42.4 28.2-67.8 28.2h-408.2c-53-0.2-96-43.2-96-96.2v-832c0-53 43-96 96-96h576c53 0 96 43 96 96v664.2c0 25.4-10.2 50-28.2 68zM694.6 718.8c4.2-4.2 7-9.2 8.4-14.8h-191v191c5.6-1.4 10.6-4.2 14.8-8.4l167.8-167.8zM672 0h-576c-17.6 0-32 14.4-32 32v832c0 17.6 14.4 32 32 32h352v-208c0-26.6 21.4-48 48-48h208v-608c0-17.6-14.4-32-32-32zM576 488v-16c0-13.2-10.8-24-24-24h-336c-13.2 0-24 10.8-24 24v16c0 13.2 10.8 24 24 24h336c13.2 0 24-10.8 24-24zM576 360v-16c0-13.2-10.8-24-24-24h-336c-13.2 0-24 10.8-24 24v16c0 13.2 10.8 24 24 24h336c13.2 0 24-10.8 24-24zM576 232v-16c0-13.2-10.8-24-24-24h-336c-13.2 0-24 10.8-24 24v16c0 13.2 10.8 24 24 24h336c13.2 0 24-10.8 24-24z" />
<glyph unicode="&#xe90c;" glyph-name="file-chart-line" horiz-adv-x="768" d="M272 320h-32c-8.8 0-16-7.2-16-16v-192c0-8.8 7.2-16 16-16h32c8.8 0 16 7.2 16 16v192c0 8.8-7.2 16-16 16zM400 512h-32c-8.8 0-16-7.2-16-16v-384c0-8.8 7.2-16 16-16h32c8.8 0 16 7.2 16 16v384c0 8.8-7.2 16-16 16zM480 368v-256c0-8.8 7.2-16 16-16h32c8.8 0 16 7.2 16 16v256c0 8.8-7.2 16-16 16h-32c-8.8 0-16-7.2-16-16zM739.8 764.040l-167.76 167.76c-18 18-42.4 28.2-67.78 28.2h-408.28c-52.98-0.2-95.98-43.2-95.98-96.18v-831.84c0-52.98 43-95.98 95.98-95.98h576.040c52.98 0 95.98 43 95.98 95.98v664.080c0 25.38-10.2 49.98-28.2 67.98zM512.060 894.82c5.6-1.4 10.6-4.2 14.8-8.4l167.76-167.76c4.2-4.2 7-9.2 8.4-14.8h-190.96v190.96zM704.020 31.98c0-17.6-14.4-32-32-32h-576.040c-17.6 0-32 14.4-32 32v831.84c0 17.6 14.4 32.18 32 32.18h352.080v-208.14c0-26.6 21.4-47.86 48-47.86h207.96v-608.020z" />
<glyph unicode="&#xe90d;" glyph-name="file-check" horiz-adv-x="768" d="M739.882 764.118l-167.764 167.764c-17.373 17.373-41.372 28.118-67.882 28.118h-408.236c-53.020 0-96-42.98-96-96v-832c0-53.020 42.98-96 96-96h576c53.020 0 96 42.98 96 96v664.236c0 26.51-10.745 50.509-28.118 67.882v0zM694.628 718.862c3.983-3.98 6.914-9.011 8.343-14.642l0.047-0.22h-191.018v191.018c5.851-1.475 10.883-4.406 14.862-8.39v0l167.766-167.766zM672 0h-576c-17.674 0-32 14.326-32 32v832c0 17.674 14.326 32 32 32h352v-208c0-26.51 21.49-48 48-48h208v-608c0-17.674-14.326-32-32-32zM603.066 421.898l-269.582-267.42c-9.4-9.326-24.576-9.284-33.926 0.092l-134.716 135.104c-9.366 9.394-9.344 24.602 0.048 33.97l17.010 16.96c9.394 9.366 24.602 9.344 33.968-0.048l100.884-101.174 235.564 233.674c9.418 9.342 24.626 9.282 33.97-0.136l16.916-17.054c9.344-9.418 9.282-24.626-0.136-33.968z" />
<glyph unicode="&#xe90e;" glyph-name="file-times" horiz-adv-x="768" d="M739.8 764.2l-167.8 167.8c-17.343 17.384-41.309 28.153-67.791 28.2h-408.209c-53.016-0.182-95.932-43.168-96-96.193v-832.007c0-53.019 42.981-96 96-96v0h576c53.019 0 96 42.981 96 96v0 664.2c-0.044 26.554-10.811 50.585-28.201 68.001l0.001-0.001zM694.6 718.8c3.991-3.955 6.927-8.967 8.353-14.582l0.047-0.218h-191v191c5.833-1.473 10.845-4.409 14.798-8.398l0.002-0.002zM672 0h-576c-17.673 0-32 14.327-32 32v0 832c0 17.673 14.327 32 32 32v0h352v-208c0-0.036 0-0.078 0-0.12 0-26.443 21.437-47.88 47.88-47.88 0.042 0 0.084 0 0.127 0h207.993v-608c0-17.673-14.327-32-32-32v0zM525.42 221.9l-11.32-11.32c-4.346-4.361-10.358-7.059-17-7.059s-12.654 2.698-16.999 7.058l-96.101 96.161-96.16-96.16c-4.346-4.361-10.358-7.059-17-7.059s-12.654 2.698-16.999 7.058l-11.321 11.321c-4.361 4.346-7.059 10.358-7.059 17s2.698 12.654 7.058 16.999l0.001 0.001 96.22 96.1-96.16 96.16c-4.361 4.346-7.059 10.358-7.059 17s2.698 12.654 7.058 16.999l11.321 11.321c4.346 4.361 10.358 7.059 17 7.059s12.654-2.698 16.999-7.058l0.001-0.001 96.1-96.22 96.16 96.16c4.346 4.361 10.358 7.059 17 7.059s12.654-2.698 16.999-7.058l11.321-11.321c4.361-4.346 7.059-10.358 7.059-17s-2.698-12.654-7.058-16.999l-0.001-0.001-96.22-96.1 96.16-96.16c4.343-4.343 7.029-10.343 7.029-16.97s-2.686-12.627-7.029-16.97v0z" />
<glyph unicode="&#xe90f;" glyph-name="file-contract" horiz-adv-x="768" d="M393.32 233.34l-27.76 83.24c-6.56 19.62-24.88 32.82-45.56 32.82s-39-13.18-45.56-32.82l-36.44-109.3c-3-9.16-11.56-15.28-21.18-15.28h-24.82c-17.68 0-32-14.32-32-32s14.32-32 32-32h24.82c37.24 0 70.18 23.76 81.94 59.060l21.24 63.78 33.62-100.96c4.131-12.109 14.995-20.839 28.017-21.774l0.103-0.006c0.76-0.060 1.5-0.1 2.24-0.1 12.060 0 23.18 6.82 28.62 17.72l15.32 30.66c5.56 11.18 15.88 12.38 20.060 12.38s14.5-1.18 20.38-13.060c14.76-29.4 44.38-47.68 77.24-47.68h30.4c17.68 0 32 14.32 32 32s-14.32 32-32 32h-30.38c-8.56 0-16.24 4.76-20.32 13-23.92 47.7-92.48 60.66-131.98 28.32zM144 768h224c8.84 0 16 7.16 16 16v32c0 8.84-7.16 16-16 16h-224c-8.84 0-16-7.16-16-16v-32c0-8.84 7.16-16 16-16zM384 656v32c0 8.84-7.16 16-16 16h-224c-8.84 0-16-7.16-16-16v-32c0-8.84 7.16-16 16-16h224c8.84 0 16 7.16 16 16zM739.8 764.040l-167.76 167.76c-18 18-42.4 28.2-67.78 28.2h-408.28c-52.98-0.2-95.98-43.2-95.98-96.18v-831.84c0-52.98 43-95.98 95.98-95.98h576.040c52.98 0 95.98 43 95.98 95.98v664.080c0 25.38-10.2 49.98-28.2 67.98zM512.060 894.82c5.6-1.4 10.6-4.2 14.8-8.4l167.76-167.76c4.2-4.2 7-9.2 8.4-14.8h-190.96v190.96zM704.020 31.98c0-17.6-14.4-32-32-32h-576.040c-17.6 0-32 14.4-32 32v831.84c0 17.6 14.4 32.18 32 32.18h352.080v-208.14c0-26.6 21.4-47.86 48-47.86h207.96v-608.020z" />
<glyph unicode="&#xe910;" glyph-name="file-medical-alt" horiz-adv-x="896" d="M867.8 764l-167.8 167.8c-18 18-42.4 28.2-67.8 28.2h-408c-53-0.2-96-43.2-96-96.2v-479.8h-112.2c-8.8 0-16-7.2-16-16v-32c0-8.8 7.2-16 16-16h252.2l69.4-139c5.8-11.8 22.8-11.8 28.6 0l113.8 227.4 44.2-88.4h179.8c17.6 0 32 14.4 32 32s-14.4 32-32 32h-140.2l-69.4 139c-5.8 11.8-22.8 11.8-28.6 0l-113.8-227.4-39.8 79.6c-2.8 5.4-8.2 8.8-14.4 8.8h-105.8v479.8c0 17.6 14.6 32.2 32.2 32.2h352v-208.2c0-26.6 21.4-47.8 48-47.8h208v-608c0-17.6-14.4-32-32-32h-576c-17.6 0-32.2 14.4-32.2 32v224h-63.8v-224c0-53 43-96 96-96h575.8c53 0 96 43 96 96v664c0 25.4-10.2 50-28.2 68zM640 703.8v191c5.6-1.4 10.6-4.2 14.8-8.4l167.8-167.8c4.2-4.2 7-9.2 8.4-14.8h-191z" />
<glyph unicode="&#xe911;" glyph-name="file-pdf" horiz-adv-x="768" d="M739.8 764.2l-167.8 167.8c-18 18-42.4 28.2-67.8 28.2h-408.2c-53-0.2-96-43.2-96-96.2v-832c0-53 43-96 96-96h576c53 0 96 43 96 96v664.2c0 25.4-10.2 50-28.2 68zM694.6 718.8c4.2-4.2 7-9.2 8.4-14.8h-191v191c5.6-1.4 10.6-4.2 14.8-8.4l167.8-167.8zM672 0h-576c-17.6 0-32 14.4-32 32v832c0 17.6 14.4 32 32 32h352v-208c0-26.6 21.4-48 48-48h208v-608c0-17.6-14.4-32-32-32zM628 342.4c-27 26.6-110 18.4-147.4 13.4-42.4 25.6-70.4 60.8-90.2 113.2 8.6 36 24 94.4 12.8 129.8-8.8 56.2-79.4 49.4-89.2 13.6-10-36.6-0.6-88.8 16.8-155.6-23.8-56.8-59.4-133.8-84.2-177.2-41.6-21.4-108.2-58.6-117.6-104.8-7-33.6 45.8-78.8 106.2-12.8 18.2 19.8 38.6 49.6 62.6 91 53.4 17.6 112.2 39.6 164 48 43.8-24 95.2-39.8 129.2-39.8 55.4-0.2 57.8 60.4 37 81.2zM169.6 164.4c11.8 31.8 57.2 68.8 71 81.6-44.2-70.6-71-83-71-81.6zM360 609c17.4 0 15.6-75 4.2-95.2-10.4 32.6-10 95.2-4.2 95.2zM303.2 290.4c22.6 39.6 42 86.4 57.6 127.4 19.4-35.4 44.2-63.4 70.2-83-48.6-9.4-90.8-30.2-127.8-44.4zM610 302.2s-11.6-14-87 18.2c82 6 95.4-12.8 87-18.2z" />
<glyph unicode="&#xe912;" glyph-name="file-signature" horiz-adv-x="1152" d="M1121.66 688.080l-49.58 49.58c-40.46 40.48-106 40.52-146.52 0l-157.56-157.1v115.5c0 25.4-10.2 50-28.2 67.98l-167.76 167.76c-18 18-42.4 28.2-67.78 28.2h-408.28c-52.98-0.2-95.98-43.2-95.98-96.18v-831.84c0-52.98 43-95.98 95.98-95.98h576.040c52.98 0 95.98 43 95.98 95.98v161.080c12.58 9.36 25.24 18.7 36.36 29.9l317.28 318.6c19.58 19.56 30.34 45.58 30.34 73.26s-10.76 53.68-30.32 73.26zM512.060 894.82c5.6-1.4 10.6-4.2 14.8-8.4l167.76-167.76c4.2-4.2 7-9.2 8.4-14.8h-190.96v190.96zM704.020 31.98c0-17.6-14.4-32-32-32h-576.040c-17.6 0-32 14.4-32 32v831.84c0 17.6 14.4 32.18 32 32.18h352.080v-208.14c0-26.6 21.4-47.86 48-47.86h207.96v-123.060l-97.020-96.48c-60.28-59.92-94.84-143.020-94.94-228-7.86 0.58-14.94 4.84-18.72 12.54-23.94 47.72-92.5 60.68-132 28.34l-27.76 83.24c-6.56 19.62-24.88 32.82-45.56 32.82s-39-13.18-45.56-32.82l-36.46-109.3c-3-9.16-11.56-15.28-21.18-15.28h-24.82c-17.68 0-32-14.32-32-32s14.32-32 32-32h24.82c37.24 0 70.18 23.76 81.94 59.060l21.24 63.78 33.62-100.96c9.080-27.020 46.28-29.66 59-4.16l15.32 30.66c8.020 16.14 31.6 17.18 40.44-0.68 14.5-28.92 43.42-47.1 75.62-47.7h64c44.1 0.020 87.9 9.8 128.020 27.2v-123.22zM758.98 268.080c-46.743-46.995-111.453-76.080-182.956-76.080-0.009 0-0.017 0-0.026 0h0.002v0.060c0 68.7 27.4 134.58 76.12 183.020l241.1 239.74 105.6-105.6-239.84-241.14zM1076.4 586.8l-42.38-42.38-105.6 105.6 42.4 42.38c15.46 15.46 40.54 15.48 56.020 0l49.58-49.58c15.44-15.46 15.44-40.54-0.020-56.020z" />
<glyph unicode="&#xe913;" glyph-name="filter" d="M959.936 960h-895.86c-56.85 0-85.534-68.974-45.256-109.254l365.18-365.256v-373.49c0-0.001 0-0.002 0-0.002 0-19.17 8.429-36.371 21.784-48.099l0.072-0.062 128-111.966c40.876-35.766 106.144-7.36 106.144 48.164v485.456l365.19 365.256c40.2 40.198 11.71 109.254-45.254 109.254zM576 512v-512l-128 112v400l-384 384h896l-384-384z" />
<glyph unicode="&#xe914;" glyph-name="heart-rate" horiz-adv-x="1280" d="M960 512c-13.060 0-24.88-7.96-29.68-20.12l-91.24-228.1-168 671.96c-3.64 14.54-15.7 23.92-31.84 24.26-15-0.38-27.68-11.060-30.62-25.72l-164.12-820.46-93.44 373.94c-3.598 14.033-16.133 24.24-31.053 24.24-0.003 0-0.005 0-0.008 0h-304c-8.84 0-16-7.16-16-16v-32c0-8.84 7.16-16 16-16h279l121.94-487.76c3.56-14.28 16.44-24.24 31.060-24.24h0.76c15 0.38 27.68 11.060 30.62 25.72l164.12 820.46 157.44-629.94c3.38-13.46 15.060-23.24 28.88-24.18 15.24-0.56 26.76 7.18 31.88 20.060l120 299.88h282.3c8.84 0 16 7.16 16 16v32c0 8.84-7.16 16-16 16h-304z" />
<glyph unicode="&#xe915;" glyph-name="heart" d="M924.6 834.6c-109 92.8-272 77.4-373.2-27l-39.4-40.8-39.4 40.6c-81.6 84.4-246.2 135.2-373.2 27.2-125.6-107.2-132.2-299.6-19.8-415.6l387-399.6c12.4-12.8 28.8-19.4 45.2-19.4s32.8 6.4 45.2 19.4l387 399.6c112.8 116 106.2 308.4-19.4 415.6zM898.4 463.4l-385.6-399.6-387.2 399.6c-76.8 79.2-92.8 230.2 15.4 322.4 109.6 93.6 238.4 25.8 285.6-23l85.4-88.2 85.4 88.2c46.4 48 176.4 116 285.6 23 108-92 92.2-243 15.4-322.4z" />
<glyph unicode="&#xe916;" glyph-name="hospital-alt" horiz-adv-x="1152" d="M936 192h-80c-13.2 0-24-10.8-24-24v-80c0-13.2 10.8-24 24-24h80c13.2 0 24 10.8 24 24v80c0 13.2-10.8 24-24 24zM936 448h-80c-13.2 0-24-10.8-24-24v-80c0-13.2 10.8-24 24-24h80c13.2 0 24 10.8 24 24v80c0 13.2-10.8 24-24 24zM616 192h-80c-13.2 0-24-10.8-24-24v-80c0-13.2 10.8-24 24-24h80c13.2 0 24 10.8 24 24v80c0 13.2-10.8 24-24 24zM616 448h-80c-13.2 0-24-10.8-24-24v-80c0-13.2 10.8-24 24-24h80c13.2 0 24 10.8 24 24v80c0 13.2-10.8 24-24 24zM296 192h-80c-13.2 0-24-10.8-24-24v-80c0-13.2 10.8-24 24-24h80c13.2 0 24 10.8 24 24v80c0 13.2-10.8 24-24 24zM296 448h-80c-13.2 0-24-10.8-24-24v-80c0-13.2 10.8-24 24-24h80c13.2 0 24 10.8 24 24v80c0 13.2-10.8 24-24 24zM660 736h-52v52c0 6.6-5.4 12-12 12h-40c-6.6 0-12-5.4-12-12v-52h-52c-6.6 0-12-5.4-12-12v-40c0-6.6 5.4-12 12-12h52v-52c0-6.6 5.4-12 12-12h40c6.6 0 12 5.4 12 12v52h52c6.6 0 12 5.4 12 12v40c0 6.6-5.4 12-12 12zM1056 704h-224v160c0 53-43 96-96 96h-320c-53 0-96-43-96-96v-160h-224c-53 0-96-43-96-96v-656c0-8.8 7.2-16 16-16h32c8.8 0 16 7.2 16 16v656c0 17.6 14.4 32 32 32h288v224c0 17.6 14.4 32 32 32h320c17.6 0 32-14.4 32-32v-224h288c17.6 0 32-14.4 32-32v-656c0-8.8 7.2-16 16-16h32c8.8 0 16 7.2 16 16v656c0 53-43 96-96 96z" />
<glyph unicode="&#xe917;" glyph-name="hospital-user" horiz-adv-x="1280" d="M296 576h-80c-13.255 0-24-10.745-24-24v0-80c0-13.255 10.745-24 24-24v0h80c13.255 0 24 10.745 24 24v0 80c0 13.255-10.745 24-24 24v0zM296 384h-80c-13.255 0-24-10.745-24-24v0-80c0-13.255 10.745-24 24-24v0h80c13.255 0 24 10.745 24 24v0 80c0 13.255-10.745 24-24 24v0zM296 192h-80c-13.255 0-24-10.745-24-24v0-80c0-13.255 10.745-24 24-24v0h80c13.255 0 24 10.745 24 24v0 80c0 13.255-10.745 24-24 24v0zM488 384h-80c-13.255 0-24-10.745-24-24v0-80c0-13.255 10.745-24 24-24v0h80c13.255 0 24 10.745 24 24v0 80c0 13.255-10.745 24-24 24v0zM488 576h-80c-13.255 0-24-10.745-24-24v0-80c0-13.255 10.745-24 24-24v0h80c13.255 0 24 10.745 24 24v0 80c0 13.255-10.745 24-24 24v0zM488 192h-80c-13.255 0-24-10.745-24-24v0-80c0-13.255 10.745-24 24-24v0h80c13.255 0 24 10.745 24 24v0 80c0 13.255-10.745 24-24 24v0zM384 704h52c6.627 0 12 5.373 12 12v0 40c0 6.627-5.373 12-12 12v0h-52v52c0 6.627-5.373 12-12 12v0h-40c-6.627 0-12-5.373-12-12v0-52h-52c-6.627 0-12-5.373-12-12v0-40c0-6.627 5.373-12 12-12v0h52v-52c0-6.627 5.373-12 12-12v0h40c6.627 0 12 5.373 12 12v0zM960 320c106.039 0 192 85.961 192 192s-85.961 192-192 192c-106.039 0-192-85.961-192-192v0c0-106.039 85.961-192 192-192v0zM960 640c70.692 0 128-57.308 128-128s-57.308-128-128-128c-70.692 0-128 57.308-128 128v0c0.080 70.66 57.34 127.92 127.993 128h0.007zM1247.38 197.74c-34.5 51.26-93.38 78.26-153.8 78.26-55.58 0-69.58-20-133.58-20s-77.9 20-133.58 20c-60.46 0-119.3-26.96-153.8-78.22-20.429-29.945-32.62-66.927-32.62-106.756 0-0.128 0-0.256 0-0.384v0.020-74.66c0-44.183 35.817-80 80-80v0h480c44.183 0 80 35.817 80 80v0 74.66c0 0.096 0 0.21 0 0.324 0 39.829-12.191 76.811-33.046 107.418l0.425-0.662zM1216 16c0-8.837-7.163-16-16-16v0h-480c-8.837 0-16 7.163-16 16v0 74.66c0 0.081 0 0.177 0 0.273 0 26.512 8.11 51.13 21.984 71.509l-0.284-0.442c21.060 31.28 58.7 50 100.72 50 43.6 0 60-20 133.58-20s90 20 133.58 20c42 0 79.66-18.68 100.72-50 13.59-19.937 21.7-44.555 21.7-71.067 0-0.096 0-0.192 0-0.288v0.015zM640 704v-444.62c18.074 19.868 39.213 36.543 62.749 49.375l1.251 0.625v394.62c0 35.346-28.654 64-64 64v0h-32v128c0 35.346-28.654 64-64 64v0h-384c-35.346 0-64-28.654-64-64v0-128h-32c-35.346 0-64-28.654-64-64v0-752c0-8.837 7.163-16 16-16v0h32c8.837 0 16 7.163 16 16v0 752h96v192h384v-192z" />
<glyph unicode="&#xe918;" glyph-name="link" d="M602.296 170.596l-158.4-158.38c-101.556-101.598-266.074-101.648-367.68 0-101.598 101.556-101.648 266.074 0 367.68l158.38 158.4c2.26 2.259 4.561 4.479 6.902 6.657l0.162 0.149c15.1 14.010 39.59 4.008 40.416-16.572 0.386-9.614 1.196-19.214 2.432-28.768 0.962-7.434-1.492-14.894-6.794-20.192-32.96-32.938-150.284-150.256-150.6-150.572-73.476-73.518-73.462-192.376 0-265.88 73.518-73.476 192.376-73.462 265.88 0l159.12 159.12c72.602 73.344 72.28 192.14-0.74 265.16-16.428 16.428-35.154 29.16-55.17 38.218-9.132 4.132-14.852 13.334-14.268 23.34 0.663 11.123 2.681 21.531 5.9 31.398l-0.248-0.88c4.206 13.202 19.062 19.922 31.838 14.56 30.146-12.648 58.374-31.24 82.87-55.736 101.376-101.378 101.358-266.34 0-367.702zM421.704 357.704c24.496-24.496 52.724-43.088 82.87-55.736 12.776-5.36 27.632 1.36 31.838 14.56 2.97 8.987 4.989 19.395 5.635 30.174l0.017 0.344c0.584 10.006-5.138 19.208-14.268 23.34-20.016 9.056-38.742 21.788-55.17 38.218-73.020 73.020-73.342 191.816-0.74 265.16l159.12 159.12c73.504 73.462 192.362 73.476 265.88 0 73.462-73.504 73.476-192.362 0-265.88-0.314-0.314-117.638-117.634-150.6-150.572-5.302-5.3-7.756-12.758-6.794-20.192 1.124-8.13 1.995-18.064 2.411-28.116l0.021-0.652c0.826-20.582 25.318-30.582 40.416-16.572 2.503 2.326 4.804 4.545 7.064 6.806l158.38 158.4c101.648 101.606 101.598 266.124 0 367.68-101.604 101.648-266.124 101.598-367.68 0l-158.4-158.38c-101.358-101.364-101.376-266.326 0-367.702z" />
<glyph unicode="&#xe919;" glyph-name="circle-notch" d="M576 911.794v-16.338c0.005-11.62 8.271-21.308 19.243-23.51l0.153-0.026c197.88-38.77 348.604-212.842 348.604-423.92 0-237.326-192.11-432-432-432-237.326 0-432 192.11-432 432 0 209.068 149.092 385.018 348.594 423.956 11.131 2.223 19.403 11.914 19.406 23.538v0 16.294c0 15.046-13.69 26.386-28.474 23.596-230.582-43.48-404.798-246.534-403.518-490.048 1.44-274.104 222.954-493.912 497.062-493.334 273.44 0.576 494.93 222.42 494.93 495.998 0 242.374-173.848 444.134-403.648 487.408-14.738 2.776-28.352-8.616-28.352-23.614z" />
<glyph unicode="&#xe91a;" glyph-name="circle" d="M512 944c-274 0-496-222-496-496s222-496 496-496 496 222 496 496-222 496-496 496zM944 448c0-237.4-192.2-432-432-432-237.4 0-432 192.2-432 432 0 237.4 192.2 432 432 432 237.4 0 432-192.2 432-432z" />
<glyph unicode="&#xe91b;" glyph-name="hospital-symbol" d="M688 672h-32c-8.8 0-16-7.2-16-16v-176h-256v176c0 8.8-7.2 16-16 16h-32c-8.8 0-16-7.2-16-16v-416c0-8.8 7.2-16 16-16h32c8.8 0 16 7.2 16 16v176h256v-176c0-8.8 7.2-16 16-16h32c8.8 0 16 7.2 16 16v416c0 8.8-7.2 16-16 16zM512 960c-282.8 0-512-229.2-512-512s229.2-512 512-512 512 229.2 512 512-229.2 512-512 512zM512 0c-247 0-448 201-448 448s201 448 448 448 448-201 448-448-201-448-448-448z" />
<glyph unicode="&#xe91c;" glyph-name="check-circle" d="M512 944c-273.934 0-496-222.066-496-496s222.066-496 496-496 496 222.066 496 496-222.066 496-496 496zM512 16c-237.328 0-432 192.11-432 432 0 237.326 192.11 432 432 432 237.328 0 432-192.11 432-432 0-237.326-192.11-432-432-432zM795.26 565.922l-360.96-358.064c-9.41-9.334-24.606-9.274-33.94 0.136l-171.756 173.144c-9.334 9.41-9.274 24.606 0.136 33.94l17.040 16.902c9.41 9.334 24.606 9.274 33.94-0.136l137.952-139.066 326.882 324.26c9.41 9.334 24.606 9.274 33.94-0.136l16.902-17.040c9.336-9.41 9.274-24.606-0.136-33.94z" />
<glyph unicode="&#xe91d;" glyph-name="plus-circle" d="M768 460v-24c0-13.2-10.8-24-24-24h-196v-196c0-13.2-10.8-24-24-24h-24c-13.2 0-24 10.8-24 24v196h-196c-13.2 0-24 10.8-24 24v24c0 13.2 10.8 24 24 24h196v196c0 13.2 10.8 24 24 24h24c13.2 0 24-10.8 24-24v-196h196c13.2 0 24-10.8 24-24zM1008 448c0-274-222-496-496-496s-496 222-496 496 222 496 496 496 496-222 496-496zM944 448c0 239.8-194.6 432-432 432-239.8 0-432-194.6-432-432 0-239.8 194.6-432 432-432 239.8 0 432 194.6 432 432z" />
<glyph unicode="&#xe91e;" glyph-name="check" horiz-adv-x="896" d="M827.010 776.098l-560.030-560.030-197.99 197.99c-9.372 9.372-24.568 9.372-33.942 0l-22.626-22.626c-9.372-9.372-9.372-24.568 0-33.942l237.588-237.588c9.372-9.372 24.568-9.372 33.942 0l599.626 599.626c9.372 9.372 9.372 24.568 0 33.942l-22.628 22.628c-9.372 9.372-24.568 9.372-33.94 0z" />
<glyph unicode="&#xe91f;" glyph-name="plus" horiz-adv-x="768" d="M752 496h-320v320c0 8.84-7.16 16-16 16h-64c-8.84 0-16-7.16-16-16v-320h-320c-8.84 0-16-7.16-16-16v-64c0-8.84 7.16-16 16-16h320v-320c0-8.84 7.16-16 16-16h64c8.84 0 16 7.16 16 16v320h320c8.84 0 16 7.16 16 16v64c0 8.84-7.16 16-16 16z" />
<glyph unicode="&#xe920;" glyph-name="minus" horiz-adv-x="768" d="M752 496h-736c-8.84 0-16-7.16-16-16v-64c0-8.84 7.16-16 16-16h736c8.84 0 16 7.16 16 16v64c0 8.84-7.16 16-16 16z" />
<glyph unicode="&#xe921;" glyph-name="mortar-pestle" d="M1008 576h-226.74l213.46 213.46c48.22 48.22 35.020 129.5-25.96 160-13.012 6.645-28.381 10.539-44.66 10.54v0c-21.24 0-42.32-6.76-59.96-19.98l-485.36-364.020h-362.78c-8.84 0-16-7.16-16-16v-32c0-8.84 7.16-16 16-16h48v-64c0-162.84 101.52-301.66 244.58-357.5-25.52-33.56-43.4-73.26-49.84-116.88-2.9-19.66 11.96-37.62 31.84-37.62h442.84c19.88 0 34.74 17.94 31.84 37.62-6.42 43.62-24.3 83.34-49.84 116.88 143.060 55.84 244.58 194.66 244.58 357.5v64h48c8.84 0 16 7.16 16 16v32c0 8.84-7.16 16-16 16zM902.52 888.82c35.16 26.36 78.42-22.62 46.94-54.1l-258.7-258.72h-205.32l417.080 312.82zM896 448c0-132.62-80.020-249.54-203.84-297.88l-79.020-30.84 51.36-67.52c12.16-16 21.74-33.5 28.38-51.76h-361.74c6.64 18.26 16.2 35.76 28.38 51.76l51.36 67.52-79.020 30.84c-123.84 48.34-203.86 165.26-203.86 297.88v64h768v-64z" />
<glyph unicode="&#xe922;" glyph-name="notes-medical" horiz-adv-x="768" d="M672 832h-177.2c0.8 5.2 1.2 10.6 1.2 16 0 61.8-50.2 112-112 112s-112-50.2-112-112c0-5.4 0.4-10.8 1.2-16h-177.2c-53 0-96-43-96-96v-704c0-53 43-96 96-96h576c53 0 96 43 96 96v704c0 53-43 96-96 96zM384 896c26.6 0 48-21.4 48-48s-21.4-48-48-48-48 21.4-48 48 21.4 48 48 48zM704 32c0-17.6-14.4-32-32-32h-576c-17.6 0-32 14.4-32 32v704c0 17.6 14.4 32 32 32h96v-40c0-13.2 10.8-24 24-24h336c13.2 0 24 10.8 24 24v40h96c17.6 0 32-14.4 32-32v-704zM560 384h-112v112c0 8.8-7.2 16-16 16h-96c-8.8 0-16-7.2-16-16v-112h-112c-8.8 0-16-7.2-16-16v-96c0-8.8 7.2-16 16-16h112v-112c0-8.8 7.2-16 16-16h96c8.8 0 16 7.2 16 16v112h112c8.8 0 16 7.2 16 16v96c0 8.8-7.2 16-16 16z" />
<glyph unicode="&#xe923;" glyph-name="pills" horiz-adv-x="1152" d="M224 896c-123.6 0-224-100.4-224-224v-448c0-123.6 100.4-224 224-224s224 100.4 224 224v448c0 123.6-100.4 224-224 224zM384 224c0-88.2-71.8-160-160-160s-160 71.8-160 160v160h320v-160zM384 448h-320v224c0 88.2 71.8 160 160 160s160-71.8 160-160v-224zM832 640c-176.8 0-320-143.2-320-320s143.2-320 320-320 320 143.2 320 320-143.2 320-320 320zM832 64c-141.4 0-256 114.6-256 256 0 59.2 20.8 112.8 54.6 156.2l357.8-357.8c-43.6-33.6-97.2-54.4-156.4-54.4zM1033.4 163.8l-357.6 357.6c43.4 33.6 97 54.6 156.2 54.6 141.4 0 256-114.6 256-256 0-59.2-20.8-112.8-54.6-156.2z" />
<glyph unicode="&#xe924;" glyph-name="prescription-bottle" horiz-adv-x="768" d="M720 960h-672c-26.4 0-48-21.6-48-48v-160c0-26.4 21.6-48 48-48h16v-704c0-35.2 28.8-64 64-64h512c35.2 0 64 28.8 64 64v704h16c26.4 0 48 21.6 48 48v160c0 26.4-21.6 48-48 48zM640 0h-512v128h176c8.8 0 16 7.2 16 16v32c0 8.8-7.2 16-16 16h-176v128h176c8.8 0 16 7.2 16 16v32c0 8.8-7.2 16-16 16h-176v128h176c8.8 0 16 7.2 16 16v32c0 8.8-7.2 16-16 16h-176v128h512v-704zM704 768h-640v128h640v-128z" />
<glyph unicode="&#xe925;" glyph-name="prescription" horiz-adv-x="768" d="M557.26 256l206.060 206.060c6.24 6.24 6.24 16.38 0 22.62l-22.62 22.62c-6.24 6.24-16.38 6.24-22.62 0l-206.080-206.040-210.74 210.74h18.74c106.040 0 192 85.96 192 192s-85.96 192-192 192h-304c-8.84 0-16-7.16-16-16v-544c0-8.84 7.16-16 16-16h32c8.84 0 16 7.16 16 16v176h146.74l256-256-206.060-206.060c-6.24-6.24-6.24-16.38 0-22.62l22.62-22.62c6.24-6.24 16.38-6.24 22.62 0l206.080 206.040 206.060-206.060c6.24-6.24 16.38-6.24 22.62 0l22.62 22.62c6.24 6.24 6.24 16.38 0 22.62l-206.040 206.080zM64 576v256h256c70.58 0 128-57.42 128-128s-57.42-128-128-128h-256z" />
<glyph unicode="&#xe926;" glyph-name="exclamation-triangle" horiz-adv-x="1152" d="M540.4 640h71c6.8 0 12.2-5.6 12-12.4l-15-392c-0.2-6.4-5.6-11.6-12-11.6h-41c-6.4 0-11.8 5-12 11.6l-15 392c-0.2 6.8 5.2 12.4 12 12.4zM576 184c-31 0-56-25-56-56s25-56 56-56 56 25 56 56-25 56-56 56zM1139 80l-479.8 832c-36.8 64-129.4 64-166.4 0l-479.8-832c-36.8-63.8 9.2-144 83.2-144h959.8c73.6 0 120 80 83 144zM1056 0h-960c-24.6 0-40 26.6-27.8 48l480 832c12.2 21.2 43.2 21.4 55.4 0l480-832c12.4-21.2-3-48-27.6-48z" />
<glyph unicode="&#xe927;" glyph-name="question-circle" d="M512 280c-30.928 0-56-25.072-56-56s25.072-56 56-56 56 25.072 56 56-25.072 56-56 56zM527.34 328h-32c-13.254 0-24 10.746-24 24v0.762c0 140.686 154.88 127.238 154.88 214.816 0 40.032-35.522 80.422-114.88 80.422-58.288 0-88.53-19.298-118.422-57.384-7.816-9.96-22.108-11.99-32.496-4.752l-26.268 18.3c-11.25 7.838-13.72 23.542-5.29 34.354 42.452 54.454 92.82 89.482 182.476 89.482 104.64 0 194.88-59.502 194.88-160.422 0-134.828-154.88-127.698-154.88-214.816v-0.762c0-13.254-10.746-24-24-24zM512 880c237.242 0 432-192.15 432-432 0-238.582-193.22-432-432-432-238.488 0-432 193.124-432 432 0 238.406 193.204 432 432 432zM512 944c-273.914 0-496-222.166-496-496 0-273.994 222.086-496 496-496s496 222.006 496 496c0 273.834-222.086 496-496 496z" />
<glyph unicode="&#xe928;" glyph-name="shield-check" d="M933 792.6l-384 160c-10.902 4.648-23.586 7.35-36.9 7.35s-25.998-2.702-37.531-7.588l0.631 0.238-384-160c-35.8-14.8-59.2-49.8-59.2-88.6 0-397 229-671.4 443-760.6 23.6-9.8 50.2-9.8 73.8 0 171.4 71.4 443.2 318 443.2 760.6 0 38.8-23.4 73.8-59 88.6zM524.4 2.4c-8-3.2-16.8-3.2-24.6 0-195.8 77.6-403.8 349.6-403.8 701.6 0 13 7.8 24.6 19.6 29.6l384 160c7.8 3.2 16.8 3.2 24.6 0l384-160c12-5 19.8-16.6 19.6-29.6 0.2-352-207.8-624-403.4-701.6zM796.8 652.4c-9.4 9.4-24.6 9.4-34 0.2l-326.8-324.2-138 139c-9.4 9.4-24.6 9.4-34 0.2l-17-17c-9.4-9.4-9.4-24.6-0.2-34l171.8-173.2c9.4-9.4 24.6-9.4 34-0.2l361 358c9.4 9.4 9.4 24.6 0.2 34z" />
<glyph unicode="&#xe929;" glyph-name="shield" d="M933 792.6l-384 160c-10.902 4.648-23.586 7.35-36.9 7.35s-25.998-2.702-37.531-7.588l0.631 0.238-384-160c-35.8-14.8-59.2-49.8-59.2-88.6 0-397 229-671.4 443-760.6 23.6-9.8 50.2-9.8 73.8 0 171.4 71.4 443.2 318 443.2 760.6 0 38.8-23.4 73.8-59 88.6zM524.4 2.4c-7.8-3.2-16.6-3.2-24.6 0-195.8 77.6-403.8 349.6-403.8 701.6 0 13 7.8 24.6 19.6 29.6l384 160c7.6 3.2 16.6 3.4 24.6 0l384-160c12-5 19.6-16.6 19.6-29.6 0.2-352-207.8-624-403.4-701.6z" />
<glyph unicode="&#xe92a;" glyph-name="signature" horiz-adv-x="1280" d="M1260.2 546.4c-65.4-16.8-154.2-61.6-217.4-99.2-29.4-17.6-59.8-35.8-83-46.8-62.6-30.4-116.6-56.4-168.2-56.4-25.8 0-46 8.6-59.8 25.4-22.6 27.6-22.6 70.6-15.8 126.6 6.6 53.8 1.2 95.6-15.2 114.6-8.8 10-20 13.8-37.4 12.6-49.4-3.2-149.4-84.8-324.2-265l-108.8-112 140 375.2c23.6 63.2 7.2 132.2-41.8 175.6-38.6 34.4-104.6 54.4-174 7l-147.6-99.6c-7-4.6-9-14-5-21.2l18.4-32.4c4.6-8.2 15.2-10.6 23-5.4l151.6 102.6c13.2 9 28 13.6 42.8 13.6 18.2 0 35.2-6.8 49.6-19.6 26.4-23.4 35.2-60.4 22.6-94.2l-199.6-535.2c-3.8-10.4-2-25.2 4.4-35.4 4.8-7.4 13.2-12.2 22.6-13.2 9.8-0.6 19.4 2.8 26 9.8 86.6 92.6 315.6 329.4 432.6 429.4l40.8 34.8c6.8 5.8 17 0.6 16.4-8.2l-4.2-55.8c-4-54.6-4.8-111.8 33.6-157.2 24.8-29 61.4-43.8 109.2-43.8 65.4 0 128.2 30.2 194.6 62.2 20.4 9.8 49.8 28.2 78.4 46 61.8 38.6 144.6 81 203.6 95.4 7 1.8 11.8 8 11.8 15.2v34.6c-0.2 14.8-10 22.4-20 20z" />
<glyph unicode="&#xe92b;" glyph-name="table" d="M928 896h-832c-53.020 0-96-42.98-96-96v-704c0-53.020 42.98-96 96-96h832c53.020 0 96 42.98 96 96v704c0 53.020-42.98 96-96 96zM320 64h-224c-17.674 0-32 14.326-32 32v160h256v-192zM320 320h-256v192h256v-192zM320 576h-256v192h256v-192zM640 64h-256v192h256v-192zM640 320h-256v192h256v-192zM640 576h-256v192h256v-192zM960 256v-160c0-17.674-14.326-32-32-32h-224v192h256zM960 320h-256v192h256v-192zM960 576h-256v192h256v-192z" />
<glyph unicode="&#xe92c;" glyph-name="tablets" horiz-adv-x="1280" d="M960 960c-176.8 0-320-143.2-320-320s143.2-320 320-320 320 143.2 320 320-143.2 320-320 320zM960 384c-141.4 0-256 114.6-256 256 0 59.2 20.8 112.8 54.6 156.2l357.8-357.8c-43.6-33.6-97.2-54.4-156.4-54.4zM1161.4 483.8l-357.6 357.6c43.4 33.8 97 54.6 156.2 54.6 141.4 0 256-114.6 256-256 0-59.2-20.8-112.8-54.6-156.2zM320 576c-176.8 0-320-143.2-320-320s143.2-320 320-320 320 143.2 320 320-143.2 320-320 320zM320 0c-130.4 0-236.8 97.8-252.8 224h505.6c-16-126.2-122.4-224-252.8-224zM67.2 288c16 126.2 122.4 224 252.8 224s236.8-97.8 252.8-224h-505.6z" />
<glyph unicode="&#xe92d;" glyph-name="th-list" d="M0 800v-704c0-53.020 42.98-96 96-96h832c53.020 0 96 42.98 96 96v704c0 53.020-42.98 96-96 96h-832c-53.020 0-96-42.98-96-96zM960 800v-181.334h-576v213.334h544c17.674 0 32-14.326 32-32zM960 341.334h-576v213.332h576v-213.332zM64 554.666h256v-213.334h-256v213.334zM320 832v-213.334h-256v181.334c0 17.674 14.326 32 32 32h224zM64 96v181.334h256v-213.334h-224c-17.674 0-32 14.326-32 32zM384 64v213.334h576v-181.334c0-17.674-14.326-32-32-32h-544z" />
<glyph unicode="&#xe92e;" glyph-name="user-check" horiz-adv-x="1280" d="M1275.4 670.8l-28.2 28.4c-6.2 6.2-16.4 6.4-22.6 0l-230.4-223.4-106.6 106.8c-6.2 6.2-16.4 6.2-22.6 0l-28.4-28.2c-6.2-6.2-6.2-16.4 0-22.6l140.4-140.8c9.4-9.4 24.6-9.4 34 0l264.2 257.2c6.4 6.2 6.4 16.4 0.2 22.6zM627.2 384c-57.4 0-85-32-179.2-32s-121.6 32-179.2 32c-148.4 0-268.8-120.4-268.8-268.8v-83.2c0-53 43-96 96-96h704c53 0 96 43 96 96v83.2c0 148.4-120.4 268.8-268.8 268.8zM832 32c0-17.6-14.4-32-32-32h-704c-17.6 0-32 14.4-32 32v83.2c0 113 91.8 204.8 204.8 204.8 39.2 0 78.2-32 179.2-32 100.8 0 140 32 179.2 32 113 0 204.8-91.8 204.8-204.8v-83.2zM448 448c141.4 0 256 114.6 256 256s-114.6 256-256 256-256-114.6-256-256 114.6-256 256-256zM448 896c105.8 0 192-86.2 192-192s-86.2-192-192-192-192 86.2-192 192 86.2 192 192 192z" />
<glyph unicode="&#xe92f;" glyph-name="user-clock" horiz-adv-x="1280" d="M448 448c141.4 0 256 114.6 256 256s-114.6 256-256 256-256-114.6-256-256 114.6-256 256-256zM448 896c105.8 0 192-86.2 192-192s-86.2-192-192-192-192 86.2-192 192 86.2 192 192 192zM992 512c-159.2 0-288-128.8-288-288s128.8-288 288-288 288 128.8 288 288-128.8 288-288 288zM992 0c-123.6 0-224 100.4-224 224s100.4 224 224 224 224-100.4 224-224-100.4-224-224-224zM720.4 0h-624.4c-17.6 0-32 14.4-32 32v83.2c0 113 91.8 204.8 204.8 204.8 39.2 0 78.2-32 179.2-32 100.8 0 140 32 179.2 32 8.8 0 17.2-1.6 25.8-2.6 5.8 21.4 13.8 42 23.4 61.6-16 3-32.2 5-49 5-57.4 0-85-32-179.2-32s-121.6 32-179.2 32c-148.6 0-269-120.4-269-268.8v-83.2c0-53 43-96 96-96h693.8c-25.8 18.2-49.4 39.6-69.4 64zM1100.6 256h-76.6v108.6c0 10.6-8.8 19.4-19.4 19.4h-25.2c-10.6 0-19.4-8.8-19.4-19.4v-153.2c0-10.6 8.8-19.4 19.4-19.4h121.2c10.6 0 19.4 8.8 19.4 19.4v25.2c0 10.6-8.8 19.4-19.4 19.4z" />
<glyph unicode="&#xe930;" glyph-name="user-cog" horiz-adv-x="1280" d="M1256.6 243.4l-33 19c1.6 17 1.6 34.2 0 51.2l33.2 19c19 11 27.6 33.4 21 54-14.4 46.8-39.8 90.8-73.4 127-14.8 16.2-38.6 19.8-57.4 8.8l-33-19c-14 10-28.8 18.6-44.4 25.6v38c0 22-15 40.6-36.4 45.4-47.8 10.8-98.6 10.8-146.4 0-21.4-4.8-36.4-23.6-36.4-45.4v-38c-15.6-7-30.4-15.6-44.4-25.6l-33 19c-19 11-42.6 7.4-57.4-8.8-33.4-36.2-58.8-80.2-73.4-126.8-6.6-20.8 2.4-43.6 21.2-54.4l33-19c-1.6-17-1.6-34.2 0-51.2l-33.2-19c-18.6-10.8-27.6-33.8-21-54.2 14.4-46.8 39.8-90.8 73.4-127 14.8-16 38.4-19.6 57.4-8.8l33 19c14-10 28.8-18.6 44.4-25.6v-38c0-22 15-40.6 36.4-45.4 24-5.4 48.6-8 73.2-8s49.4 2.6 73.2 8c21.4 4.8 36.4 23.6 36.4 45.4v38c15.6 7 30.4 15.6 44.4 25.6l33-19c18.8-10.8 42.6-7.2 57.4 8.8 33.4 36.2 58.8 80.2 73.4 126.8 6.6 20.8-2.4 43.8-21.2 54.6zM1153.4 229l58.8-34c-10.4-28.6-26-55.6-45.6-79l-58.8 34c-42.8-36.6-49-40.2-102.2-59v-68c-30.2-5.2-61.2-5.2-91.2 0v68c-53.8 19-60.4 23.4-102.2 59l-58.8-34c-19.6 23.6-35.2 50.4-45.6 79l58.8 34c-9.8 53.6-10.4 61.2 0 118l-58.8 34c10.4 28.6 26 55.4 45.6 79l58.8-34c42.8 36.6 49 40.2 102.2 59v68c30.2 5 61.4 5 91.2 0v-68c53.6-19 60.4-23.2 102.2-59l58.8 34c19.6-23.6 35.2-50.4 45.6-79l-58.8-34c9.8-53.6 10.4-61.2 0-118zM960 417c-71.2 0-129-58-129-129s57.8-129 129-129 129 58 129 129-57.8 129-129 129zM960 223c-35.8 0-65 29.2-65 65s29.2 65 65 65 65-29.2 65-65-29.2-65-65-65zM448 448c141.4 0 256 114.6 256 256s-114.6 256-256 256-256-114.6-256-256 114.6-256 256-256zM448 896c105.8 0 192-86.2 192-192s-86.2-192-192-192-192 86.2-192 192 86.2 192 192 192zM96 0c-17.6 0-32 14.4-32 32v83.2c0 113 91.8 204.8 204.8 204.8 39.2 0 78.2-32 179.2-32 38.4 0 76 6.6 113 17.4 1 23.2 3.6 46 8.4 68-17.8-5.4-60.2-21.4-121.4-21.4-94.2 0-121.6 32-179.2 32-148.4 0-268.8-120.4-268.8-268.8v-83.2c0-53 43-96 96-96h674c-32 17.2-61.2 39-87 64h-587z" />
<glyph unicode="&#xe931;" glyph-name="user-edit" horiz-adv-x="1280" d="M448 448c141.4 0 256 114.6 256 256s-114.6 256-256 256-256-114.6-256-256 114.6-256 256-256zM448 896c105.8 0 192-86.2 192-192s-86.2-192-192-192-192 86.2-192 192 86.2 192 192 192zM1261.2 487.8l-69.4 69.4c-12.6 12.6-29 18.8-45.6 18.8-16.4 0-33-6.2-45.6-18.8l-445-445.2-15.2-136.4c-2.4-21.4 14.4-39.6 35.4-39.6 1.4 0 2.6 0 4 0.2l136.4 15.2 445 445c25 25.4 25 66.2 0 91.4zM786.6 12.6l-78.8-9 8.8 79 313.8 313.8 70-70-313.8-313.8zM1145.6 371.6l-70 70 70.4 70.4h0.2l0.4-0.2 69.4-70-70.4-70.2zM268.8 320c39.2 0 78.2-32 179.2-32 100.8 0 140 32 179.2 32 41.4 0 79.8-12.6 112-33.8l45.6 45.6c-44.4 32.4-98.6 52-157.6 52-57.4 0-85-32-179.2-32s-121.6 32-179.2 32c-148.4 0.2-268.8-120.2-268.8-268.6v-83.2c0-53 43-96 96-96h487c-5.6 14.8-8.2 30.8-6.4 46.8l2 17.2h-482.6c-17.6 0-32 14.4-32 32v83.2c0 113 91.8 204.8 204.8 204.8z" />
<glyph unicode="&#xe932;" glyph-name="user-headset" horiz-adv-x="896" d="M640 256h-9.4c-24.32 0-48-5.8-71-13.6-33.294-11.676-71.679-18.42-111.64-18.42s-78.346 6.745-114.080 19.158l2.44-0.738c-22.96 7.8-46.58 13.56-70.84 13.56h-9.48c-141.371 0-255.977-114.592-256-255.958v-0.002c0-35.346 28.654-64 64-64v0h768c35.346 0 64 28.654 64 64v0c0 141.385-114.615 256-256 256v0zM64 0c0.114 105.993 86.007 191.886 191.989 192h9.491c13.84 0 29.84-3.24 50.32-10.18 39.414-13.818 84.855-21.8 132.16-21.8s92.746 7.982 135.049 22.673l-2.889-0.873c20.62 6.98 36.66 10.22 50.48 10.22h9.4c105.993-0.114 191.886-86.007 192-191.989v-0.011zM96 512c17.673 0 32 14.327 32 32v0 32c0 176.44 143.56 320 320 320s320-143.56 320-320v-32c-0.102-88.324-71.676-159.898-159.99-160h-64.010c0 35.346-28.654 64-64 64v0h-64c-35.346 0-64-28.654-64-64s28.654-64 64-64v0h192c123.648 0.159 223.841 100.352 224 223.985v32.015c0 211.76-172.24 384-384 384s-384-172.24-384-384v-32c0-17.673 14.327-32 32-32v0zM448 768c0.253 0.001 0.553 0.002 0.853 0.002 105.564 0 191.14-85.576 191.14-191.14 0-49.493-18.811-94.592-49.673-128.538l0.14 0.156c0-0.18 0.26-0.3 0.36-0.48h17.18c34.065 0.077 63.945 17.926 80.867 44.764l0.233 0.396c8.9 26.12 14.9 53.68 14.9 82.84 0 141.385-114.615 256-256 256s-256-114.615-256-256v0c0-80.84 38.2-152 96.7-198.94-0.12 2.34-0.7 4.56-0.7 6.94 0.156 23.646 6.776 45.714 18.177 64.566l-0.317-0.566c-30.97 33.854-49.944 79.132-49.944 128.842 0 105.575 85.585 191.16 191.16 191.16 0.325 0 0.65-0.001 0.975-0.002h-0.050z" />
<glyph unicode="&#xe933;" glyph-name="user-md-chat" horiz-adv-x="1280" d="M1024 960c-141.38 0-256-100.34-256-224 0-57.52 25.5-109.44 66.22-149.1-18.728-42.394-39.645-78.772-63.863-112.628l1.283 1.888c-2.293-3.181-3.668-7.157-3.668-11.455 0-2.398 0.428-4.696 1.212-6.822l-0.044 0.137c2.18-6.26 6.86-10 12.2-10 79.7 0 144.7 34.26 190.46 68.72 15.688-3.003 33.738-4.727 52.189-4.74h0.011c141.4 0 256 100.28 256 224s-114.6 224-256 224zM1024 576c-14.415 0.011-28.51 1.35-42.179 3.9l1.419-0.22-27.56 5-22.36-16.84c-15.176-11.653-32.31-22.349-50.445-31.327l-1.815-0.813c4 8.16 8 16.7 11.82 25.58l17.74 40.56-31.74 30.9c-21.38 20.78-46.88 55.6-46.88 103.26 0 88.22 86.12 160 192 160s192-71.78 192-160-86.12-160-192-160zM635.38 383.8c-67.6 2-88.6-31.8-187.4-31.8s-119.58 33.8-187.18 31.8c-144.956-4.376-260.8-122.932-260.8-268.545 0-0.019 0-0.039 0-0.058v0.003-163.2c0-8.837 7.163-16 16-16v0h32c8.837 0 16 7.163 16 16v0 163.2c0 108.6 85.2 196.8 192 203.6v-163.4c-46.649-14.229-80-56.885-80-107.331 0-61.856 50.144-112 112-112s112 50.144 112 112c0 50.446-33.351 93.102-79.207 107.123l-0.793 0.209v153.8c38.181-13.311 82.193-21 128-21s89.819 7.688 130.816 21.845l-2.816-0.846v-137.6c-56.4-15-96-69-96-129.2v-58.4c0.030-8.828 3.616-16.812 9.4-22.6l20.6-20.6c2.894-2.887 6.889-4.673 11.3-4.673s8.406 1.785 11.3 4.673v0l22.6 22.6c2.887 2.894 4.673 6.889 4.673 11.3s-1.785 8.406-4.673 11.3v0l-11.4 11.4v50.6c0.121 35.409 28.854 64.067 64.28 64.067 3.716 0 7.358-0.315 10.901-0.92l-0.38 0.054c31.4-5.2 53.2-34.8 53.2-66.6v-47.2l-11.4-11.4c-2.887-2.894-4.673-6.889-4.673-11.3s1.785-8.406 4.673-11.3v0l22.6-22.6c2.894-2.887 6.889-4.673 11.3-4.673s8.406 1.785 11.3 4.673v0l20.6 20.6c5.784 5.788 9.37 13.772 9.4 22.594v64.006c-0.203 59.070-40.513 108.67-95.111 123.002l-0.889 0.198v147.4c106.8-6.8 192-95 192-203.6v-163c0-8.837 7.163-16 16-16v0h32c8.837 0 16 7.163 16 16v0 163.2c0.001 0.212 0.001 0.462 0.001 0.713 0 145.277-115.594 263.555-259.823 267.878l-0.398 0.009zM336 48c0-26.51-21.49-48-48-48s-48 21.49-48 48c0 26.51 21.49 48 48 48v0c26.482-0.068 47.932-21.518 48-47.993v-0.007zM448 448c141.385 0 256 114.615 256 256s-114.615 256-256 256c-141.385 0-256-114.615-256-256v0c0-141.385 114.615-256 256-256v0zM448 896c106.039 0 192-85.961 192-192s-85.961-192-192-192c-106.039 0-192 85.961-192 192v0c0.17 105.97 86.030 191.83 191.984 192h0.016z" />
<glyph unicode="&#xe934;" glyph-name="user-minus" horiz-adv-x="1280" d="M448 448c141.4 0 256 114.6 256 256s-114.6 256-256 256-256-114.6-256-256 114.6-256 256-256zM448 896c105.8 0 192-86.2 192-192s-86.2-192-192-192-192 86.2-192 192 86.2 192 192 192zM1264 512h-416c-8.8 0-16-7.2-16-16v-32c0-8.8 7.2-16 16-16h416c8.8 0 16 7.2 16 16v32c0 8.8-7.2 16-16 16zM627.2 384c-57.4 0-85-32-179.2-32s-121.6 32-179.2 32c-148.4 0-268.8-120.4-268.8-268.8v-83.2c0-53 43-96 96-96h704c53 0 96 43 96 96v83.2c0 148.4-120.4 268.8-268.8 268.8zM832 32c0-17.6-14.4-32-32-32h-704c-17.6 0-32 14.4-32 32v83.2c0 113 91.8 204.8 204.8 204.8 39.2 0 78.2-32 179.2-32 100.8 0 140 32 179.2 32 113 0 204.8-91.8 204.8-204.8v-83.2z" />
<glyph unicode="&#xe935;" glyph-name="user-plus" horiz-adv-x="1280" d="M1264 512h-176v176c0 8.8-7.2 16-16 16h-32c-8.8 0-16-7.2-16-16v-176h-176c-8.8 0-16-7.2-16-16v-32c0-8.8 7.2-16 16-16h176v-176c0-8.8 7.2-16 16-16h32c8.8 0 16 7.2 16 16v176h176c8.8 0 16 7.2 16 16v32c0 8.8-7.2 16-16 16zM627.2 384c-57.4 0-85-32-179.2-32s-121.6 32-179.2 32c-148.4 0-268.8-120.4-268.8-268.8v-83.2c0-53 43-96 96-96h704c53 0 96 43 96 96v83.2c0 148.4-120.4 268.8-268.8 268.8zM832 32c0-17.6-14.4-32-32-32h-704c-17.6 0-32 14.4-32 32v83.2c0 113 91.8 204.8 204.8 204.8 39.2 0 78.2-32 179.2-32 100.8 0 140 32 179.2 32 113 0 204.8-91.8 204.8-204.8v-83.2zM448 448c141.4 0 256 114.6 256 256s-114.6 256-256 256-256-114.6-256-256 114.6-256 256-256zM448 896c105.8 0 192-86.2 192-192s-86.2-192-192-192-192 86.2-192 192 86.2 192 192 192z" />
<glyph unicode="&#xe936;" glyph-name="user-nurse" horiz-adv-x="896" d="M638.82 324l-190.82-190.78-190.82 190.78c-143-6.18-257.18-123.18-257.18-267.6 0.034-64.272 52.128-116.366 116.397-116.4h663.203c64.272 0.034 116.366 52.128 116.4 116.397v0.003c0 144.42-114.18 261.42-257.18 267.6zM416 4h-299.6c-28.903 0.091-52.309 23.497-52.4 52.391v0.009c0 94.92 76 184.88 169.46 200.82l182.54-182.54zM779.6 4h-299.6v70.72l182.5 182.5c93.5-15.94 169.5-105.9 169.5-200.82-0.091-28.903-23.497-52.309-52.391-52.4h-0.009zM448 356c141.385 0 256 114.615 256 256v0 220.36c0 0.023 0 0.051 0 0.078 0 27.27-17.056 50.557-41.082 59.774l-0.438 0.148-169.54 63.5c-13.349 5.154-28.796 8.14-44.94 8.14s-31.591-2.986-45.818-8.436l0.878 0.295-169.54-63.58c-24.464-9.365-41.519-32.651-41.52-59.92v0-220.36c0-141.385 114.615-256 256-256v0zM256 832.36l169.54 63.64c6.674 2.58 14.398 4.074 22.47 4.074s15.796-1.495 22.908-4.222l-0.438 0.148 169.52-63.64v-156.36h-384zM640 612c0-106.039-85.961-192-192-192s-192 85.961-192 192v0zM518 814.66h-43.34v43.34c0 5.523-4.477 10-10 10v0h-33.32c-5.523 0-10-4.477-10-10v0-43.34h-43.34c-5.523 0-10-4.477-10-10v0-33.32c0-5.523 4.477-10 10-10v0h43.34v-43.34c0-5.523 4.477-10 10-10v0h33.32c5.523 0 10 4.477 10 10v0 43.34h43.34c5.523 0 10 4.477 10 10v0 33.32c0 5.523-4.477 10-10 10v0z" />
<glyph unicode="&#xe937;" glyph-name="user-shield" horiz-adv-x="1280" d="M1244.6 417.8l-230.4 90c-7 2.8-14.6 4.2-22.2 4.2s-15-1.4-22.2-4.2l-230.4-90c-21.4-8.4-35.4-28-35.4-49.8 0-223.2 137.4-377.6 265.8-427.8 7-2.8 14.6-4.2 22.2-4.2s15 1.4 22.2 4.2c102.6 40 265.8 178.8 265.8 427.8 0 21.8-14 41.4-35.4 49.8zM960 16c-96.4 53.6-189.2 175.2-192 344.2l192 75v-419.2zM993.2-0.2c-0.2 0-0.4 0.2-0.4 0.2h1c-0.4 0-0.6-0.2-0.6-0.2zM1024 15v420.2l192-75c-3-189.6-114.2-300.4-192-345.2zM96 0c-17.6 0-32 14.4-32 32v83.2c0 113 91.8 204.8 204.8 204.8 39.2 0 78.2-32 179.2-32 100.8 0 140 32 179.2 32 5.2 0 10-1.2 15-1.6-1.4 16.2-2.2 32.6-2.2 49.6 0 5 1.6 9.6 2.2 14.4-5 0.2-9.8 1.6-15 1.6-57.4 0-85-32-179.2-32s-121.6 32-179.2 32c-148.4 0-268.8-120.4-268.8-268.8v-83.2c0-53 43-96 96-96h704c13.6 0 26.6 3 38.4 8-20.6 16.4-40.4 35.2-59.4 56h-683zM448 448c141.4 0 256 114.6 256 256s-114.6 256-256 256-256-114.6-256-256 114.6-256 256-256zM448 896c105.8 0 192-86.2 192-192s-86.2-192-192-192-192 86.2-192 192 86.2 192 192 192z" />
<glyph unicode="&#xe938;" glyph-name="users-medical" horiz-adv-x="1280" d="M1024 512c-141.385 0-256-114.615-256-256s114.615-256 256-256c141.385 0 256 114.615 256 256v0c0 141.385-114.615 256-256 256v0zM1024 64c-106.039 0-192 85.961-192 192s85.961 192 192 192c106.039 0 192-85.961 192-192v0c0-106.039-85.961-192-192-192v0zM1141.34 298.66h-74.68v74.68c0 5.887-4.773 10.66-10.66 10.66h-64c-5.887 0-10.66-4.773-10.66-10.66v0-74.68h-74.68c-5.887 0-10.66-4.773-10.66-10.66v-64c0-5.887 4.773-10.66 10.66-10.66v0h74.68v-74.68c0-5.887 4.773-10.66 10.66-10.66h64c5.887 0 10.66 4.773 10.66 10.66v0 74.68h74.68c5.887 0 10.66 4.773 10.66 10.66v64c0 5.887-4.773 10.66-10.66 10.66v0zM640 448c123.712 0 224 100.288 224 224s-100.288 224-224 224c-123.712 0-224-100.288-224-224v0c0-0.036 0-0.078 0-0.12 0-123.646 100.234-223.88 223.88-223.88 0.042 0 0.084 0 0.127 0h-0.006zM640 832c88.366 0 160-71.634 160-160s-71.634-160-160-160c-88.366 0-160 71.634-160 160v0c0.125 88.315 71.685 159.875 159.988 160h0.012zM192 512c88.366 0 160 71.634 160 160s-71.634 160-160 160c-88.366 0-160-71.634-160-160v0c0-88.366 71.634-160 160-160v0zM192 768c53.019 0 96-42.981 96-96s-42.981-96-96-96c-53.019 0-96 42.981-96 96v0c0 53.019 42.981 96 96 96v0zM769.62 64h-417.62c-17.673 0-32 14.327-32 32v0 89.6c0 0.057 0 0.125 0 0.192 0 34.537 10.537 66.614 28.572 93.189l-0.372-0.581c27.6 41 76.8 65.6 131.4 65.6s74.4-24 160.4-24c1.082-0.013 2.361-0.020 3.641-0.020 24.449 0 48.274 2.674 71.198 7.745l-2.179-0.405c6.719 27.7 16.1 52.015 28.167 74.682l-0.827-1.702c-27.74-7.020-52.22-16.3-100-16.3-76.8 0-93.4 24-160.2 24-72.6 0-143.2-32.4-184.6-93.8-24.549-35.949-39.2-80.356-39.2-128.184 0-0.146 0-0.292 0-0.438v0.023-89.6c0-53.019 42.981-96 96-96v0h482c-24.587 18.469-45.795 39.556-63.804 63.211l-0.576 0.789zM314.2 422.2c-22.969 16.041-51.447 25.676-82.169 25.8h-80.031c-83.8 0-152-71.8-152-160 0-17.673 14.327-32 32-32s32 14.327 32 32v0c0 53 39.6 96 88 96h80c11.366-0.049 22.153-2.473 31.907-6.801l-0.507 0.201c14.961 16.809 31.625 31.568 49.876 44.196l0.924 0.604z" />
<glyph unicode="&#xe939;" glyph-name="users" horiz-adv-x="1280" d="M1088 512c88.4 0 160 71.6 160 160s-71.6 160-160 160-160-71.6-160-160 71.6-160 160-160zM1088 768c53 0 96-43 96-96s-43-96-96-96-96 43-96 96 43 96 96 96zM640 448c123.8 0 224 100.2 224 224s-100.2 224-224 224-224-100.2-224-224 100.2-224 224-224zM640 832c88.2 0 160-71.8 160-160s-71.8-160-160-160-160 71.8-160 160 71.8 160 160 160zM1128 448h-80c-30.4 0-58.6-9.6-82.2-25.8 18.8-12.8 35.8-27.8 50.8-44.8 9.8 4.2 20.4 6.6 31.4 6.6h80c48.4 0 88-43 88-96 0-17.6 14.4-32 32-32s32 14.4 32 32c0 88.2-68.2 160-152 160zM192 512c88.4 0 160 71.6 160 160s-71.6 160-160 160-160-71.6-160-160 71.6-160 160-160zM192 768c53 0 96-43 96-96s-43-96-96-96-96 43-96 96 43 96 96 96zM800.2 408c-66.8 0-83.4-24-160.2-24s-93.4 24-160.2 24c-72.6 0-143.2-32.4-184.6-93.8-24.8-36.8-39.2-81-39.2-128.6v-89.6c0-53 43-96 96-96h576c53 0 96 43 96 96v89.6c0 47.6-14.4 91.8-39.2 128.6-41.4 61.4-112 93.8-184.6 93.8zM960 96c0-17.6-14.4-32-32-32h-576c-17.6 0-32 14.4-32 32v89.6c0 33.2 9.8 65.4 28.2 92.8 27.6 41 76.8 65.6 131.4 65.6 54.8 0 74.4-24 160.4-24s105.6 24 160.2 24c54.6 0 103.8-24.6 131.4-65.6 18.4-27.4 28.2-59.6 28.2-92.8v-89.6zM314.2 422.2c-23.8 16.2-52 25.8-82.2 25.8h-80c-83.8 0-152-71.8-152-160 0-17.6 14.4-32 32-32s32 14.4 32 32c0 53 39.6 96 88 96h80c11 0 21.6-2.4 31.4-6.6 15 17 32.2 32 50.8 44.8z" />
<glyph unicode="&#xe93a;" glyph-name="wifi-slash" horiz-adv-x="1280" d="M648.4 319.2c-2.8 0.2-5.6 0.8-8.4 0.8-88.4 0-160-71.6-160-160s71.6-160 160-160 160 71.6 160 160c0 16-3 31-7.4 45.6zM640 64c-53 0-96 43-96 96s43 96 96 96 96-43 96-96-43-96-96-96zM7.6 644c-9.8-9.4-10.2-25-0.6-34.6l11.4-11.4c9.2-9.2 24.2-9.4 33.6-0.6 38.2 36.2 79 67.8 121.6 95.6l-52.8 41.6c-39.2-27.2-77.4-56.6-113.2-90.6zM1228 597.4c9.4-9 24.4-8.8 33.6 0.6l11.4 11.4c9.6 9.6 9.4 25.2-0.6 34.6-265.2 251.6-644.2 314.8-966.6 189.4l60.4-47.6c291.6 98.4 625.4 35.8 861.8-188.4zM633 575.8l89.2-70.4c103.6-15.4 203.6-59.6 286.6-133.4 9.6-8.6 24.4-8 33.2 1.4l11 11.6c9.4 9.8 8.8 25.4-1.4 34.4-118.8 106-268.8 158-418.6 156.4zM1274-10.4l-1228 966.8c-6.8 5.6-17 4.6-22.4-2.4l-20-25c-5.6-7-4.4-17 2.4-22.4l1228-967c6.8-5.6 17-4.4 22.4 2.4l20 25c5.6 7 4.6 17-2.4 22.6zM228 419.4c-10-9-10.6-24.6-1.2-34.4l11-11.6c9-9.4 23.6-10 33.4-1.4 51.6 46 111.4 81.8 176.2 105.6l-57.4 45.2c-58-25.4-112.8-59.6-162-103.4z" />
<glyph unicode="&#xe93b;" glyph-name="ambulance" horiz-adv-x="1280" d="M592 576h-112v112c0 8.8-7.2 16-16 16h-96c-8.8 0-16-7.2-16-16v-112h-112c-8.8 0-16-7.2-16-16v-96c0-8.8 7.2-16 16-16h112v-112c0-8.8 7.2-16 16-16h96c8.8 0 16 7.2 16 16v112h112c8.8 0 16 7.2 16 16v96c0 8.8-7.2 16-16 16zM1264 192h-48v216.2c0 33.6-13.6 66.6-37.6 90.4l-167.8 167.8c-23.6 24-56.6 37.6-90.4 37.6h-88.2v98.8c0 51.4-44.4 93.2-98.8 93.2h-634.4c-54.4 0-98.8-41.8-98.8-93.2v-581.6c0-51.4 44.4-93.2 98.8-93.2h32.4c-2.2-10.4-3.2-21-3.2-32 0-88.4 71.6-160 160-160s160 71.6 160 160c0 11-1.2 21.6-3.2 32h390.4c-2.2-10.4-3.2-21-3.2-32 0-88.4 71.6-160 160-160s160 71.6 160 160c0 11-1.2 21.6-3.2 32h115.2c8.8 0 16 7.2 16 16v32c0 8.8-7.2 16-16 16zM288 0c-53 0-96 43-96 96s43 96 96 96 96-43 96-96-43-96-96-96zM768 192h-352.8c-29.2 38.6-75.2 64-127.2 64s-98-25.4-127.2-64h-62c-19.2 0-34.8 13-34.8 29.2v581.6c0 16.2 15.6 29.2 34.8 29.2h634.4c19.2 0 34.8-13 34.8-29.2v-610.8zM832 640h88.2c16.8 0 33.4-6.8 45.2-18.8l167.8-167.8c1.6-1.6 2.2-3.8 3.6-5.6h-304.8v192.2zM992 0c-53 0-96 43-96 96s43 96 96 96 96-43 96-96-43-96-96-96zM1152 192h-32.8c-29.2 38.6-75.2 64-127.2 64s-98-25.4-127.2-64h-32.8v192h320v-192z" />
<glyph unicode="&#xe93c;" glyph-name="allergies" horiz-adv-x="896" d="M480 128c-17.6 0-32-14.4-32-32s14.4-32 32-32 32 14.4 32 32-14.4 32-32 32zM672 128c-17.6 0-32-14.4-32-32s14.4-32 32-32 32 14.4 32 32-14.4 32-32 32zM352 192c-17.6 0-32-14.4-32-32s14.4-32 32-32 32 14.4 32 32-14.4 32-32 32zM736 384c-17.6 0-32-14.4-32-32s14.4-32 32-32 32 14.4 32 32-14.4 32-32 32zM608 256c-17.6 0-32-14.4-32-32s14.4-32 32-32 32 14.4 32 32-14.4 32-32 32zM480 320c-17.6 0-32-14.4-32-32s14.4-32 32-32 32 14.4 32 32-14.4 32-32 32zM352 384c-17.6 0-32-14.4-32-32s14.4-32 32-32 32 14.4 32 32-14.4 32-32 32zM784 736c-17.2 0-33.4-3.8-48-10.8v58.8c0 61.8-50.2 112-112 112-19.4 0-37.6-5-53.4-13.6-14.6 45-56.8 77.6-106.6 77.6s-92-32.6-106.6-77.6c-15.8 8.6-34 13.6-53.4 13.6-61.8 0-112-50.2-112-112v-305.6c-23 23.6-84.2 55.4-144.2 13.4-50.6-35.4-63-105.4-27.6-156l227.4-342.6c23.8-35.8 63.6-57.2 106.6-57.2h361.2c60.8 0 113.6 43.2 125.6 102.8l41.2 206.4c9 45.4 13.6 91.8 13.6 138v240.8c0.2 61.8-50 112-111.8 112zM832 383.4c0-42.2-4.2-84.2-12.4-125.6l-41.2-206.4c-6-30-32.2-51.4-62.8-51.4h-361.2c-21.4 0-41.4 10.8-53.4 28.6l-228.4 343.8c-15.2 21.8-10 51.6 11.8 66.8 31.6 22.2 60-2 66.8-11.8l75.6-108.8c9-12.8 29.2-6.6 29.2 9.2v456.2c0 26.6 21.4 48 48 48s48-21.4 48-48v-320c0-8.8 7.2-16 16-16h32c8.8 0 16 7.2 16 16v384c0 26.6 21.4 48 48 48s48-21.4 48-48v-384c0-8.8 7.2-16 16-16h32c8.8 0 16 7.2 16 16v320c0 26.6 21.4 48 48 48s48-21.4 48-48v-320c0-8.8 7.2-16 16-16h32c8.8 0 16 7.2 16 16v160c0 26.6 21.4 48 48 48s48-21.4 48-48v-240.6z" />
<glyph unicode="&#xe93d;" glyph-name="chevron-double" horiz-adv-x="768" d="M699 9l-422.2 422c-9.4 9.4-9.4 24.6 0 34l422.2 422c9.4 9.4 24.6 9.4 34 0l14.2-14.2c9.4-9.4 9.4-24.6 0-34l-391-390.8 391-391c9.4-9.4 9.4-24.6 0-34l-14.2-14.2c-9.4-9.2-24.6-9.2-34 0.2zM477 9l14.2 14.2c9.4 9.4 9.4 24.6 0 34l-391 390.8 390.8 391c9.4 9.4 9.4 24.6 0 34l-14.2 14.2c-9.4 9.4-24.6 9.4-34 0l-422.2-422c-9.4-9.4-9.4-24.6 0-34l422.2-422c9.6-9.6 24.8-9.6 34.2-0.2z" />
<glyph unicode="&#xe93e;" glyph-name="chevron-double-right" horiz-adv-x="768" d="M69 887l422.2-422c9.4-9.4 9.4-24.6 0-34l-422.2-422c-9.4-9.4-24.6-9.4-34 0l-14.2 14.2c-9.4 9.4-9.4 24.6 0 34l391 390.8-390.8 391c-9.4 9.4-9.4 24.6 0 34l14.2 14.2c9.2 9.2 24.4 9.2 33.8-0.2zM291 887l-14.2-14.2c-9.4-9.4-9.4-24.6 0-34l391-390.8-390.8-391c-9.4-9.4-9.4-24.6 0-34l14.2-14.2c9.4-9.4 24.6-9.4 34 0l422.2 422c9.4 9.4 9.4 24.6 0 34l-422.2 422c-9.6 9.6-24.8 9.6-34.2 0.2z" />
<glyph unicode="&#xe93f;" glyph-name="chevron-left" horiz-adv-x="512" d="M476.95 8.93l14.142 14.14c9.372 9.372 9.372 24.568 0 33.942l-390.986 390.988 390.986 390.988c9.372 9.372 9.372 24.568 0 33.942l-14.142 14.14c-9.372 9.372-24.568 9.372-33.94 0l-422.102-422.1c-9.372-9.372-9.372-24.568 0-33.942l422.102-422.1c9.372-9.372 24.568-9.372 33.94 0.002z" />
<glyph unicode="&#xe940;" glyph-name="print" d="M864 576h-32v165.5c0 16.98-6.74 33.24-18.74 45.26l-154.52 154.5c-12 12-28.28 18.74-45.26 18.74h-360.52c-33.68 0-60.96-28.66-60.96-64v-320h-32c-88.36 0-160-71.64-160-160v-192c0-17.68 14.32-32 32-32h160v-224c0-17.68 14.32-32 32-32h576c17.68 0 32 14.32 32 32v224h160c17.68 0 32 14.32 32 32v192c0 88.36-71.64 160-160 160zM640 869.5l101.5-101.5h-101.5v101.5zM256.24 896h319.76v-128c0-35.34 28.66-64 64-64h128v-128h-511.96l0.2 320zM768 0h-512v192h512v-192zM960 256h-896v160c0 52.94 43.060 96 96 96h704c52.94 0 96-43.060 96-96v-160zM800 432c-26.5 0-48-21.48-48-48 0-26.5 21.5-48 48-48s48 21.5 48 48c0 26.52-21.5 48-48 48z" />
<glyph unicode="&#xe941;" glyph-name="caret-down" horiz-adv-x="640" d="M575.936 640h-511.86c-56.85 0-85.534-68.976-45.254-109.254l255.924-256c24.992-24.992 65.516-24.994 90.51 0l255.936 256c40.198 40.198 11.708 109.254-45.256 109.254zM320 320l-256 256h512l-256-256z" />
<glyph unicode="&#xf002;" glyph-name="search" d="M1017-3.2l-258 258c-4.6 4.6-10.6 7-17 7h-20.6c68.6 74.2 110.6 173.2 110.6 282.2 0 229.8-186.2 416-416 416s-416-186.2-416-416 186.2-416 416-416c109 0 208 42 282.2 110.4v-20.4c0-6.4 2.6-12.4 7-17l258-258c9.4-9.4 24.6-9.4 34 0l19.8 19.8c9.4 9.4 9.4 24.6 0 34zM416 192c-194.6 0-352 157.4-352 352s157.4 352 352 352 352-157.4 352-352-157.4-352-352-352z" />
<glyph unicode="&#xf007;" glyph-name="user" horiz-adv-x="896" d="M627.2 384c-57.4 0-85-32-179.2-32s-121.6 32-179.2 32c-148.4 0-268.8-120.4-268.8-268.8v-83.2c0-53 43-96 96-96h704c53 0 96 43 96 96v83.2c0 148.4-120.4 268.8-268.8 268.8zM832 32c0-17.6-14.4-32-32-32h-704c-17.6 0-32 14.4-32 32v83.2c0 113 91.8 204.8 204.8 204.8 39.2 0 78.2-32 179.2-32 100.8 0 140 32 179.2 32 113 0 204.8-91.8 204.8-204.8v-83.2zM448 448c141.4 0 256 114.6 256 256s-114.6 256-256 256-256-114.6-256-256 114.6-256 256-256zM448 896c105.8 0 192-86.2 192-192s-86.2-192-192-192-192 86.2-192 192 86.2 192 192 192z" />
<glyph unicode="&#xf00d;" glyph-name="times" horiz-adv-x="640" d="M387.88 448l247.42 247.42c6.24 6.24 6.24 16.38 0 22.62l-45.26 45.26c-6.24 6.24-16.38 6.24-22.62 0l-247.42-247.42-247.42 247.44c-6.24 6.24-16.38 6.24-22.62 0l-45.28-45.26c-6.24-6.24-6.24-16.38 0-22.62l247.44-247.44-247.44-247.42c-6.24-6.24-6.24-16.38 0-22.62l45.26-45.26c6.24-6.24 16.38-6.24 22.62 0l247.44 247.42 247.42-247.42c6.24-6.24 16.38-6.24 22.62 0l45.26 45.26c6.24 6.24 6.24 16.38 0 22.62l-247.42 247.42z" />
<glyph unicode="&#xf015;" glyph-name="home" horiz-adv-x="1152" d="M1082 501.68l-122 99.66v154.8c0 6.627-5.373 12-12 12v0h-40c-6.627 0-12-5.373-12-12v0-102.66l-279.62 228.24c-10.938 8.878-25.031 14.255-40.38 14.255s-29.442-5.376-40.499-14.349l0.119 0.094-465.62-380.040c-3.608-2.957-5.892-7.413-5.892-12.403 0-3.833 1.348-7.351 3.595-10.106l-0.023 0.029 20.2-24.82c2.957-3.606 7.412-5.889 12.401-5.889 3.798 0 7.286 1.323 10.030 3.533l-0.031-0.024 81.72 66.76v-486c0-17.673 14.327-32 32-32v0h256c17.673 0 32 14.327 32 32v0 256l128-0.6v-256.16c0-17.673 14.327-32 32-32v0l256 0.66c17.673 0 32 14.327 32 32v0 486.1l81.72-66.76c2.728-2.23 6.251-3.582 10.089-3.582 4.994 0 9.454 2.288 12.388 5.873l0.023 0.028 20.2 24.82c2.218 2.724 3.562 6.237 3.562 10.065 0 5.030-2.321 9.519-5.952 12.452l-0.030 0.024zM895.78 64.5h0.2l-192-0.6v256.34c-0.056 17.615-14.293 31.887-31.889 32h-0.011l-192 0.54c-0.030 0-0.065 0-0.1 0-17.673 0-32-14.327-32-32 0 0 0 0 0 0v0-256.28h-191.98v506.48l320 261.14 320-261.14z" />
<glyph unicode="&#xf017;" glyph-name="clock" d="M512 944c-274 0-496-222-496-496s222-496 496-496 496 222 496 496-222 496-496 496zM944 448c0-237.4-192.2-432-432-432-237.4 0-432 192.2-432 432 0 237.4 192.2 432 432 432 237.4 0 432-192.2 432-432zM646.2 271.4l-162.4 118c-6.2 4.6-9.8 11.8-9.8 19.4v319.2c0 13.2 10.8 24 24 24h28c13.2 0 24-10.8 24-24v-292.6l141-102.6c10.8-7.8 13-22.8 5.2-33.6l-16.4-22.6c-7.8-10.6-22.8-13-33.6-5.2z" />
<glyph unicode="&#xf024;" glyph-name="flag" d="M688.696 810.666c-113.212 0-203.804 69.334-343.652 69.334-56.974 0-107.35-10.644-153.93-28.898 7.992 59.472-39.498 111.152-98.972 108.822-49.078-1.922-89.276-41.424-91.99-90.466-2.444-44.138 24.954-82.222 63.848-95.974v-813.484c0-13.254 10.746-24 24-24h16c13.254 0 24 10.746 24 24v243.204c62.846 29.078 144.132 58.128 271.304 58.128 113.212 0 203.804-69.334 343.652-69.334 102.62 0 183.866 34.476 260.016 85.906 13.178 8.9 21.028 23.818 21.028 39.72v523.334c0 35.098-36.412 58.304-68.244 43.52-73.56-34.168-172.526-73.812-267.060-73.812zM96 904c22.056 0 40-17.944 40-40s-17.944-40-40-40-40 17.944-40 40 17.944 40 40 40zM960 325.334c-46.234-33.394-129.096-69.334-217.044-69.334-127.23 0-216.494 69.334-343.652 69.334-92.032 0-204.558-20.372-271.304-52v473.332c46.234 33.392 129.096 69.334 217.044 69.334 127.23 0 216.494-69.334 343.652-69.334 91.84 0 204.434 37.626 271.304 69.334v-490.666z" />
<glyph unicode="&#xf054;" glyph-name="chevron-right" horiz-adv-x="512" d="M35.050 887.070l-14.142-14.14c-9.372-9.372-9.372-24.568 0-33.942l390.986-390.988-390.986-390.988c-9.372-9.372-9.372-24.568 0-33.942l14.142-14.14c9.372-9.372 24.568-9.372 33.94 0l422.102 422.1c9.372 9.372 9.372 24.568 0 33.942l-422.102 422.098c-9.372 9.374-24.568 9.374-33.94 0z" />
<glyph unicode="&#xf05a;" glyph-name="info-circle" d="M512 880c237.242 0 432-192.15 432-432 0-238.582-193.22-432-432-432-238.488 0-432 193.124-432 432 0 238.406 193.204 432 432 432zM512 944c-273.914 0-496-222.166-496-496 0-273.994 222.086-496 496-496s496 222.006 496 496c0 273.834-222.086 496-496 496zM440 256h24v240h-24c-13.254 0-24 10.746-24 24v16c0 13.254 10.746 24 24 24h96c13.254 0 24-10.746 24-24v-280h24c13.254 0 24-10.746 24-24v-16c0-13.254-10.746-24-24-24h-144c-13.254 0-24 10.746-24 24v16c0 13.254 10.746 24 24 24zM512 736c-35.346 0-64-28.654-64-64s28.654-64 64-64 64 28.654 64 64-28.654 64-64 64z" />
<glyph unicode="&#xf06e;" glyph-name="eye" horiz-adv-x="1152" d="M576 384c70.692 0 128 57.308 128 128s-57.308 128-128 128v0c-2 0-3.76-0.48-5.7-0.58 3.613-9.645 5.705-20.791 5.705-32.425 0-52.467-42.533-95-95-95-11.634 0-22.78 2.091-33.082 5.919l0.657-0.214c0-2-0.58-3.76-0.58-5.7 0-70.692 57.308-128 128-128v0zM1145.040 477.2c-108.46 211.62-323.18 354.8-569.040 354.8s-460.64-143.28-569.040-354.82c-4.387-8.495-6.959-18.542-6.959-29.19s2.572-20.695 7.129-29.553l-0.17 0.363c108.46-211.62 323.18-354.8 569.040-354.8s460.64 143.28 569.040 354.82c4.387 8.495 6.959 18.542 6.959 29.19s-2.572 20.695-7.129 29.553l0.17-0.363zM576 768c141.385 0 256-114.615 256-256s-114.615-256-256-256c-141.385 0-256 114.615-256 256v0c0.159 141.321 114.679 255.841 255.985 256h0.015zM576 128c-214.72 0-410.92 122.62-512 320 57.931 112.088 147.223 201.090 256.246 257.113l3.314 1.547c-41.74-54.040-67.56-121-67.56-194.66 0-176.731 143.269-320 320-320s320 143.269 320 320v0c0 73.66-25.82 140.62-67.56 194.66 112.336-57.569 201.628-146.571 258.012-255.376l1.548-3.284c-101.060-197.38-297.28-320-512-320z" />
<glyph unicode="&#xf073;" glyph-name="calendar-alt" horiz-adv-x="896" d="M800 832h-96v104c0 13.2-10.8 24-24 24h-16c-13.2 0-24-10.8-24-24v-104h-384v104c0 13.2-10.8 24-24 24h-16c-13.2 0-24-10.8-24-24v-104h-96c-53 0-96-43-96-96v-704c0-53 43-96 96-96h704c53 0 96 43 96 96v704c0 53-43 96-96 96zM96 768h704c17.6 0 32-14.4 32-32v-96h-768v96c0 17.6 14.4 32 32 32zM800 0h-704c-17.6 0-32 14.4-32 32v544h768v-544c0-17.6-14.4-32-32-32zM296 320h-80c-13.2 0-24 10.8-24 24v80c0 13.2 10.8 24 24 24h80c13.2 0 24-10.8 24-24v-80c0-13.2-10.8-24-24-24zM488 320h-80c-13.2 0-24 10.8-24 24v80c0 13.2 10.8 24 24 24h80c13.2 0 24-10.8 24-24v-80c0-13.2-10.8-24-24-24zM680 320h-80c-13.2 0-24 10.8-24 24v80c0 13.2 10.8 24 24 24h80c13.2 0 24-10.8 24-24v-80c0-13.2-10.8-24-24-24zM488 128h-80c-13.2 0-24 10.8-24 24v80c0 13.2 10.8 24 24 24h80c13.2 0 24-10.8 24-24v-80c0-13.2-10.8-24-24-24zM296 128h-80c-13.2 0-24 10.8-24 24v80c0 13.2 10.8 24 24 24h80c13.2 0 24-10.8 24-24v-80c0-13.2-10.8-24-24-24zM680 128h-80c-13.2 0-24 10.8-24 24v80c0 13.2 10.8 24 24 24h80c13.2 0 24-10.8 24-24v-80c0-13.2-10.8-24-24-24z" />
<glyph unicode="&#xf077;" glyph-name="chevron-up" horiz-adv-x="896" d="M8.93 227.050l14.14-14.142c9.372-9.372 24.568-9.372 33.942 0l390.988 390.986 390.988-390.986c9.372-9.372 24.568-9.372 33.942 0l14.14 14.142c9.372 9.372 9.372 24.568 0 33.94l-422.1 422.102c-9.372 9.372-24.568 9.372-33.942 0l-422.098-422.102c-9.374-9.372-9.374-24.568 0-33.94z" />
<glyph unicode="&#xf078;" glyph-name="chevron-down" horiz-adv-x="896" d="M887 634.8l-14.2 14.2c-9.4 9.4-24.6 9.4-34 0l-390.8-391-391 391c-9.4 9.4-24.6 9.4-34 0l-14.2-14.2c-9.4-9.4-9.4-24.6 0-34l422-422.2c9.4-9.4 24.6-9.4 34 0l422 422.2c9.6 9.4 9.6 24.6 0.2 34z" />
<glyph unicode="&#xf08e;" glyph-name="external-link" d="M880 448h-32c-8.837 0-16-7.163-16-16v0-400c0-17.673-14.327-32-32-32v0h-704c-17.673 0-32 14.327-32 32v0 704c0 17.673 14.327 32 32 32v0h400c8.837 0 16 7.163 16 16v0 32c0 8.837-7.163 16-16 16v0h-400c-53.019 0-96-42.981-96-96v0-704c0-53.019 42.981-96 96-96v0h704c53.019 0 96 42.981 96 96v0 400c0 8.837-7.163 16-16 16v0zM1000 960l-272-0.68c-13.255 0-24-10.745-24-24v0-20c0-13.255 10.745-24 24-24v0l180 0.68 1.4-1.42-646.38-646.3c-4.361-4.346-7.059-10.358-7.059-17s2.698-12.654 7.058-16.999l11.321-11.321c4.346-4.361 10.358-7.059 17-7.059s12.654 2.698 16.999 7.058l646.241 646.361 1.42-1.4-0.68-180c0-13.255 10.745-24 24-24v0h20c13.255 0 24 10.745 24 24v0l0.68 272.080c0 13.255-10.745 24-24 24v0z" />
<glyph unicode="&#xf095;" glyph-name="phone" d="M975.6 911.8l-201.6 46.6c-29.4 6.8-59.6-8.4-71.6-36.2l-93-217c-11-25.4-3.6-55.4 17.8-73l107.8-88.2c-68-138.4-180.6-251.2-319.2-319.2l-88.2 107.8c-17.6 21.4-47.6 28.8-73 17.8l-216.8-93c-27.8-12-43-42-36.2-71.4l46.4-201.4c6.6-28.6 31.8-48.6 61-48.6 504.4 0 915 408.4 915 915 0 29.2-20 54.4-48.4 60.8zM110.2 0l-46 199.2 214.8 92 119-145.6c207.2 97.2 319.4 209.8 416.2 416.2l-145.6 119 92 214.8 199.2-46c-0.4-469-380.6-849-849.6-849.6z" />
<glyph unicode="&#xf0ac;" glyph-name="globe" horiz-adv-x="992" d="M496 944c-274 0-496-222-496-496s222-496 496-496 496 222 496 496-222 496-496 496zM882.4 640h-165c-18 88.8-48.2 164.4-86.4 218.2 110-36.4 200.4-115.8 251.4-218.2zM672 448c0-45.8-3.2-88.4-8.6-128h-334.8c-5.4 39.6-8.6 82.2-8.6 128s3.2 88.4 8.6 128h334.8c5.4-39.6 8.6-82.2 8.6-128zM496 880c53.8 0 122.8-88.2 156.2-240h-312.4c33.4 151.8 102.4 240 156.2 240zM361 858.2c-38-53.6-68.4-129.2-86.4-218.2h-165c51 102.4 141.4 181.8 251.4 218.2zM64 448c0 44.6 6.8 87.6 19.4 128h181c-5.2-41-8.4-83.6-8.4-128s3-87 8.4-128h-181c-12.6 40.4-19.4 83.4-19.4 128zM109.6 256h165c18-88.8 48.2-164.4 86.4-218.2-110 36.4-200.4 115.8-251.4 218.2zM496 16c-53.8 0-122.8 88.2-156.2 240h312.4c-33.4-151.8-102.4-240-156.2-240zM631 37.8c38 53.6 68.4 129.2 86.4 218.2h165c-51-102.4-141.4-181.8-251.4-218.2zM727.6 320c5.2 41 8.4 83.6 8.4 128s-3 87-8.4 128h181c12.6-40.4 19.4-83.4 19.4-128s-6.8-87.6-19.4-128h-181z" />
<glyph unicode="&#xf0c8;" glyph-name="square" horiz-adv-x="896" d="M800 896h-704c-53 0-96-43-96-96v-704c0-53 43-96 96-96h704c53 0 96 43 96 96v704c0 53-43 96-96 96zM832 96c0-17.6-14.4-32-32-32h-704c-17.6 0-32 14.4-32 32v704c0 17.6 14.4 32 32 32h704c17.6 0 32-14.4 32-32v-704z" />
<glyph unicode="&#xf0c9;" glyph-name="bars" horiz-adv-x="896" d="M884 732h-872c-6.627 0-12 5.373-12 12v0 48c0 6.627 5.373 12 12 12v0h872c6.627 0 12-5.373 12-12v0-48c0-6.627-5.373-12-12-12v0zM884 412h-872c-6.627 0-12 5.373-12 12v0 48c0 6.627 5.373 12 12 12v0h872c6.627 0 12-5.373 12-12v0-48c0-6.627-5.373-12-12-12v0zM884 92h-872c-6.627 0-12 5.373-12 12v0 48c0 6.627 5.373 12 12 12v0h872c6.627 0 12-5.373 12-12v0-48c0-6.627-5.373-12-12-12v0z" />
<glyph unicode="&#xf0dc;" glyph-name="sort" horiz-adv-x="640" d="M576 384h-512c-56.8 0-85.6-69-45.2-109.2l256-256c25-25 65.6-25 90.6 0l256 256c40 40.2 11.4 109.2-45.4 109.2zM320 64l-256 256h512l-256-256zM64 512h512c56.8 0 85.6 69 45.2 109.2l-256 256c-25 25-65.6 25-90.6 0l-256-256c-40-40.2-11.4-109.2 45.4-109.2zM320 832l256-256h-512l256 256z" />
<glyph unicode="&#xf0dd;" glyph-name="sort-down" horiz-adv-x="640" d="M575.936 384h-511.86c-56.85 0-85.534-68.976-45.254-109.254l255.924-256c24.992-24.992 65.516-24.994 90.51 0l255.936 256c40.198 40.198 11.708 109.254-45.256 109.254zM320 64l-256 256h512l-256-256z" />
<glyph unicode="&#xf0de;" glyph-name="sort-up" horiz-adv-x="640" d="M64.064 512h511.86c56.85 0 85.534 68.976 45.254 109.254l-255.924 256c-24.992 24.992-65.516 24.994-90.51 0l-255.936-256c-40.198-40.198-11.708-109.254 45.256-109.254zM320 832l256-256h-512l256 256z" />
<glyph unicode="&#xf0e0;" glyph-name="envelope" d="M928 832h-832c-53 0-96-43-96-96v-576c0-53 43-96 96-96h832c53 0 96 43 96 96v576c0 53-43 96-96 96zM96 768h832c17.6 0 32-14.4 32-32v-82.8c-43.8-37-106.4-88-301.2-242.6-33.8-26.8-100.4-91.4-146.8-90.6-46.4-0.8-113.2 63.8-146.8 90.6-194.8 154.6-257.4 205.6-301.2 242.6v82.8c0 17.6 14.4 32 32 32zM928 128h-832c-17.6 0-32 14.4-32 32v410c45.6-37.4 117.6-95.2 261.4-209.4 41-32.8 113.4-105 186.6-104.6 72.8-0.6 144.6 71 186.6 104.6 143.8 114.2 215.8 172 261.4 209.4v-410c0-17.6-14.4-32-32-32z" />
<glyph unicode="&#xf0f0;" glyph-name="user-md" horiz-adv-x="896" d="M448 448c141.4 0 256 114.6 256 256s-114.6 256-256 256-256-114.6-256-256 114.6-256 256-256zM448 896c105.8 0 192-86.2 192-192s-86.2-192-192-192-192 86.2-192 192 86.2 192 192 192zM635.4 383.8c-67.6 2-88.6-31.8-187.4-31.8-98.6 0-119.6 33.8-187.2 31.8-144.8-4.2-260.8-122.8-260.8-268.6v-163.2c0-8.8 7.2-16 16-16h32c8.8 0 16 7.2 16 16v163.2c0 108.6 85.2 196.8 192 203.6v-163.4c-46.2-13.8-80-56.6-80-107.4 0-61.8 50.2-112 112-112s112 50.2 112 112c0 50.8-33.8 93.6-80 107.4v153.8c41.6-13.6 84.4-21 128-21s86.4 7.4 128 21v-137.6c-56.4-15-96-69-96-129.2v-58.4c0-8.4 3.4-16.6 9.4-22.6l20.6-20.6c6.2-6.2 16.4-6.2 22.6 0l22.6 22.6c6.2 6.2 6.2 16.4 0 22.6l-11.4 11.4v50.6c0 38.8 34.8 69.6 74.8 63.2 31.4-5.2 53.2-34.8 53.2-66.6v-47.2l-11.4-11.4c-6.2-6.2-6.2-16.4 0-22.6l22.6-22.6c6.2-6.2 16.4-6.2 22.6 0l20.6 20.6c6 6 9.4 14.2 9.4 22.6v64c0 59.4-41 109-96 123.2v147.4c106.8-6.8 192-95 192-203.6v-163c0-8.8 7.2-16 16-16h32c8.8 0 16 7.2 16 16v163.2c0.4 145.8-115.6 264.4-260.2 268.6zM336 48c0-26.4-21.6-48-48-48s-48 21.6-48 48 21.6 48 48 48 48-21.6 48-48z" />
<glyph unicode="&#xf129;" glyph-name="info" horiz-adv-x="512" d="M416 222.666v321.334c0 30.99-14.76 58.598-37.622 76.162 42.506 35.246 69.622 88.436 69.622 147.838 0 105.87-86.13 192-192 192s-192-86.13-192-192c0-49.128 18.548-94.008 49.008-128h-1.008c-52.934 0-96-43.066-96-96v-96c0-47.484 34.654-87.028 80-94.666v-130.666c-45.346-7.64-80-47.184-80-94.668v-96c0-52.934 43.066-96 96-96h288c52.934 0 96 43.066 96 96v96c0 47.484-34.654 87.028-80 94.666zM256 896c70.692 0 128-57.308 128-128s-57.308-128-128-128-128 57.308-128 128 57.308 128 128 128zM432 32c0-17.674-14.326-32-32-32h-288c-17.674 0-32 14.326-32 32v96c0 17.674 14.326 32 32 32h48v256h-48c-17.674 0-32 14.326-32 32v96c0 17.674 14.326 32 32 32h208c17.674 0 32-14.326 32-32v-384h48c17.674 0 32-14.326 32-32v-96z" />
<glyph unicode="&#xf141;" glyph-name="ellipsis-h" horiz-adv-x="640" d="M384 448c0-35.4-28.6-64-64-64s-64 28.6-64 64 28.6 64 64 64 64-28.6 64-64zM560 512c-35.4 0-64-28.6-64-64s28.6-64 64-64 64 28.6 64 64-28.6 64-64 64zM80 512c-35.4 0-64-28.6-64-64s28.6-64 64-64 64 28.6 64 64-28.6 64-64 64z" />
<glyph unicode="&#xf142;" glyph-name="ellipsis-v" horiz-adv-x="128" d="M64 512c35.4 0 64-28.6 64-64s-28.6-64-64-64-64 28.6-64 64 28.6 64 64 64zM0 688c0-35.4 28.6-64 64-64s64 28.6 64 64-28.6 64-64 64-64-28.6-64-64zM0 208c0-35.4 28.6-64 64-64s64 28.6 64 64-28.6 64-64 64-64-28.6-64-64z" />
<glyph unicode="&#xf14a;" glyph-name="check-square" horiz-adv-x="896" d="M800 896h-704c-53.020 0-96-42.98-96-96v-704c0-53.020 42.98-96 96-96h704c53.020 0 96 42.98 96 96v704c0 53.020-42.98 96-96 96zM800 832c17.646 0 32-14.356 32-32v-704c0-17.644-14.354-32-32-32h-704c-17.644 0-32 14.356-32 32v704c0 17.644 14.356 32 32 32h704zM731.398 635.414l-16.902 17.040c-9.334 9.41-24.53 9.472-33.94 0.136l-326.882-324.26-137.952 139.066c-9.334 9.41-24.53 9.472-33.94 0.136l-17.040-16.902c-9.41-9.334-9.472-24.53-0.136-33.94l171.756-173.144c9.334-9.41 24.53-9.472 33.94-0.136l360.96 358.064c9.408 9.334 9.47 24.53 0.136 33.94z" />
<glyph unicode="&#xf1f8;" glyph-name="trash" horiz-adv-x="896" d="M880 832h-208l-67.2 89.6c-17.7 23.421-45.501 38.4-76.8 38.4v0h-160c-31.299 0-59.1-14.979-76.625-38.159l-0.175-0.241-67.2-89.6h-208c-8.837 0-16-7.163-16-16v0-32c0-8.837 7.163-16 16-16v0h37.8l66.4-744.6c4.555-49.183 45.614-87.392 95.599-87.4h464.401c49.986 0.008 91.045 38.217 95.572 87.021l0.028 0.379 66.4 744.6h37.8c8.837 0 16 7.163 16 16v0 32c0 8.837-7.163 16-16 16v0zM342.4 883.2c5.92 7.784 15.174 12.767 25.595 12.8h160.005c10.426-0.033 19.68-5.016 25.542-12.721l0.058-0.079 38.4-51.2h-288zM712 29.2c-1.396-16.41-15.060-29.2-31.712-29.2-0.031 0-0.062 0-0.093 0h-464.395c-0.026 0-0.057 0-0.088 0-16.652 0-30.316 12.79-31.704 29.083l-0.008 0.118-66 738.8h660z" />
<glyph unicode="&#xf274;" glyph-name="calendar-check" horiz-adv-x="896" d="M800 832h-96v104c0 13.254-10.746 24-24 24h-16c-13.254 0-24-10.746-24-24v-104h-384v104c0 13.254-10.746 24-24 24h-16c-13.254 0-24-10.746-24-24v-104h-96c-53.020 0-96-42.98-96-96v-704c0-53.020 42.98-96 96-96h704c53.020 0 96 42.98 96 96v704c0 53.020-42.98 96-96 96zM96 768h704c17.644 0 32-14.356 32-32v-96h-768v96c0 17.644 14.356 32 32 32zM800 0h-704c-17.644 0-32 14.356-32 32v544h768v-544c0-17.644-14.356-32-32-32zM667.066 389.874l-269.582-267.42c-9.4-9.326-24.576-9.284-33.926 0.092l-134.716 135.104c-9.366 9.394-9.344 24.602 0.048 33.97l17.010 16.96c9.394 9.366 24.602 9.344 33.968-0.048l100.884-101.174 235.564 233.674c9.418 9.342 24.626 9.282 33.97-0.136l16.916-17.054c9.344-9.418 9.282-24.626-0.136-33.968z" />
<glyph unicode="&#xf322;" glyph-name="chevron-double-down" horiz-adv-x="896" d="M887 763l-422-422.2c-9.4-9.4-24.6-9.4-34 0l-422 422.2c-9.4 9.4-9.4 24.6 0 34l14.2 14.2c9.4 9.4 24.6 9.4 34 0l390.8-391 391 390.8c9.4 9.4 24.6 9.4 34 0l14.2-14.2c9.2-9.2 9.2-24.4-0.2-33.8zM887 541l-14.2 14.2c-9.4 9.4-24.6 9.4-34 0l-390.8-391-391 390.8c-9.4 9.4-24.6 9.4-34 0l-14.2-14.2c-9.4-9.4-9.4-24.6 0-34l422-422.2c9.4-9.4 24.6-9.4 34 0l422 422.2c9.6 9.6 9.6 24.8 0.2 34.2z" />
<glyph unicode="&#xf325;" glyph-name="chevron-double-up" horiz-adv-x="896" d="M9 133l422 422.2c9.4 9.4 24.6 9.4 34 0l422-422.2c9.4-9.4 9.4-24.6 0-34l-14.2-14.2c-9.4-9.4-24.6-9.4-34 0l-390.8 391-391-390.8c-9.4-9.4-24.6-9.4-34 0l-14.2 14.2c-9.2 9.2-9.2 24.4 0.2 33.8zM9 355l14.2-14.2c9.4-9.4 24.6-9.4 34 0l390.8 391 391-391c9.4-9.4 24.6-9.4 34 0l14.2 14.2c9.4 9.4 9.4 24.6 0 34l-422 422.2c-9.4 9.4-24.6 9.4-34 0l-422.2-422.2c-9.4-9.4-9.4-24.6 0-34z" />
<glyph unicode="&#xf456;" glyph-name="pennant" horiz-adv-x="1152" d="M1104 577.4c-60-12.4-231.2-25-521.4 127.2-174 91.4-316.2 103.6-420 90.4 18 17.6 29.4 42 29.4 69 0 53-43 96-96 96s-96-43-96-96c0-41.6 26.8-76.8 64-90.2v-821.8c0-8.8 7.2-16 16-16h32c8.8 0 16 7.2 16 16v159.2c80.4 54.4 204 112.8 359 120.4 57.4 2.8 152 11.6 275.8 37.6 8.8 1.8 218.8 47.6 380 243.4 23.6 28.6-1.4 72.4-38.8 64.8zM96 896c17.6 0 32-14.4 32-32s-14.4-32-32-32-32 14.4-32 32 14.4 32 32 32zM749.8 331.8c-119.8-25-210.8-33.6-266-36.4-169.6-8.4-290.6-70.2-355.8-108.4v537.6c94.4 21.2 239 21 424.8-76.6 237.8-124.8 404.6-144.8 499-140.8-139-139.4-300.2-175-302-175.4z" />
<glyph unicode="&#xf506;" glyph-name="user-slash" horiz-adv-x="1280" d="M1274-10.4l-1228 966.8c-6.8 5.6-17 4.4-22.4-2.4l-20-25c-5.6-7-4.4-17 2.4-22.6l1228-967c6.8-5.6 17-4.4 22.4 2.4l20 25c5.6 7.2 4.4 17.2-2.4 22.8zM640 896c105.8 0 192-86.2 192-192 0-71.8-40-133.8-98.6-166.6l53.6-42.2c65.8 46.2 109 122.4 109 208.8 0 141.4-114.6 256-256 256-108 0-200-67.2-237.6-162l53.6-42.2c22.8 80.6 96.2 140.2 184 140.2zM992 0h-704c-17.6 0-32 14.4-32 32v83.2c0 113 91.8 204.8 204.8 204.8 12.2 0 26-2.8 43.4-8.8 42.6-14.8 86.8-22.2 131.6-22.8l-103.2 81.2c-35 11.4-53.6 14.4-71.8 14.4-148.4 0-268.8-120.4-268.8-268.8v-83.2c0-53 43-96 96-96h704c23.8 0 45.2 9 61.8 23.2l-54 42.4c-2.4-0.6-5-1.6-7.8-1.6z" />
</font>
</defs>
</svg>
